<?xml version="1.0" encoding="us-ascii" standalone="no"?><svg xmlns="http://www.w3.org/2000/svg" xmlns:xlink="http://www.w3.org/1999/xlink" contentStyleType="text/css" height="1205.0364px" preserveAspectRatio="none" style="width:4000px;height:1205px;background:#FFFFFF;" version="1.1" viewBox="0 0 4000 1205" width="4000.4621px" zoomAndPan="magnify"><defs/><g><!--class App--><g id="elem_App"><rect codeLine="2" fill="#F1F1F1" height="60.6301" id="App" rx="2.3103" ry="2.3103" style="stroke:#181818;stroke-width:0.4620538292711101;" width="194.0626" x="2463.209" y="144.6228"/><ellipse cx="2544.7615" cy="159.4086" fill="#ADD1B2" rx="10.1652" ry="10.1652" style="stroke:#181818;stroke-width:0.9241076585422202;"/><path d="M2547.3172,155.5966 Q2547.4616,155.3945 2547.6349,155.2934 Q2547.8081,155.1923 2548.0103,155.1923 Q2548.3568,155.1923 2548.5734,155.4378 Q2548.79,155.6688 2548.79,156.232 L2548.79,157.5748 Q2548.79,158.1379 2548.5734,158.3834 Q2548.3568,158.6289 2548.0103,158.6289 Q2547.6926,158.6289 2547.5049,158.4411 Q2547.3172,158.2679 2547.2161,157.7914 Q2547.1728,157.4593 2546.9995,157.286 Q2546.6963,156.9395 2546.1332,156.7373 Q2545.5701,156.5352 2544.9925,156.5352 Q2544.285,156.5352 2543.693,156.8384 Q2543.1154,157.1416 2542.6533,157.8347 Q2542.2057,158.5278 2542.2057,159.4808 L2542.2057,160.4915 Q2542.2057,161.6322 2543.0288,162.3975 Q2543.8518,163.1483 2545.3246,163.1483 Q2546.1909,163.1483 2546.7974,162.9173 Q2547.1584,162.7729 2547.5482,162.3686 Q2547.7937,162.1231 2547.9236,162.0509 Q2548.068,161.9787 2548.2557,161.9787 Q2548.559,161.9787 2548.79,162.2242 Q2549.0355,162.4552 2549.0355,162.7729 Q2549.0355,163.0906 2548.7178,163.466 Q2548.2557,164.0002 2547.5193,164.3035 Q2546.523,164.7222 2545.3246,164.7222 Q2543.924,164.7222 2542.8122,164.1446 Q2541.9025,163.6826 2541.2672,162.7007 Q2540.6319,161.7044 2540.6319,160.5204 L2540.6319,159.4519 Q2540.6319,158.2246 2541.195,157.1705 Q2541.7726,156.102 2542.7833,155.5389 Q2543.794,154.9613 2544.9347,154.9613 Q2545.6134,154.9613 2546.2054,155.1201 Q2546.8118,155.2645 2547.3172,155.5966 Z " fill="#000000"/><text fill="#000000" font-family="sans-serif" font-size="12.9375" lengthAdjust="spacing" textLength="23.1027" x="2563.7057" y="164.7023">App</text><line style="stroke:#181818;stroke-width:0.4620538292711101;" x1="2464.1331" x2="2656.3475" y1="174.1943" y2="174.1943"/><line style="stroke:#181818;stroke-width:0.4620538292711101;" x1="2464.1331" x2="2656.3475" y1="181.5872" y2="181.5872"/><ellipse cx="2473.3741" cy="194.8062" fill="#84BE84" rx="2.7723" ry="2.7723" style="stroke:#038048;stroke-width:0.9241076585422202;"/><text fill="#000000" font-family="sans-serif" font-size="12.9375" lengthAdjust="spacing" textLength="170.0358" x="2481.6911" y="198.7138">static void main(String[] args)</text></g><!--class FilledPlace--><g id="elem_FilledPlace"><rect codeLine="124" fill="#F1F1F1" height="125.722" id="FilledPlace" rx="2.3103" ry="2.3103" style="stroke:#181818;stroke-width:0.4620538292711101;" width="314.1966" x="2403.142" y="800.2772"/><ellipse cx="2524.4311" cy="815.063" fill="#ADD1B2" rx="10.1652" ry="10.1652" style="stroke:#181818;stroke-width:0.9241076585422202;"/><path d="M2526.9868,811.251 Q2527.1312,811.0489 2527.3045,810.9478 Q2527.4778,810.8467 2527.6799,810.8467 Q2528.0265,810.8467 2528.243,811.0922 Q2528.4596,811.3232 2528.4596,811.8863 L2528.4596,813.2292 Q2528.4596,813.7923 2528.243,814.0378 Q2528.0265,814.2832 2527.6799,814.2832 Q2527.3623,814.2832 2527.1745,814.0955 Q2526.9868,813.9223 2526.8858,813.4458 Q2526.8424,813.1137 2526.6692,812.9404 Q2526.3659,812.5939 2525.8028,812.3917 Q2525.2397,812.1896 2524.6621,812.1896 Q2523.9546,812.1896 2523.3626,812.4928 Q2522.785,812.796 2522.323,813.4891 Q2521.8754,814.1822 2521.8754,815.1352 L2521.8754,816.1459 Q2521.8754,817.2866 2522.6984,818.0519 Q2523.5214,818.8027 2524.9942,818.8027 Q2525.8606,818.8027 2526.467,818.5717 Q2526.828,818.4273 2527.2179,818.023 Q2527.4633,817.7775 2527.5933,817.7053 Q2527.7377,817.6331 2527.9254,817.6331 Q2528.2286,817.6331 2528.4596,817.8786 Q2528.7051,818.1096 2528.7051,818.4273 Q2528.7051,818.7449 2528.3874,819.1204 Q2527.9254,819.6546 2527.189,819.9578 Q2526.1927,820.3766 2524.9942,820.3766 Q2523.5936,820.3766 2522.4818,819.799 Q2521.5721,819.337 2520.9368,818.3551 Q2520.3015,817.3588 2520.3015,816.1748 L2520.3015,815.1063 Q2520.3015,813.8789 2520.8646,812.8249 Q2521.4422,811.7564 2522.4529,811.1933 Q2523.4637,810.6157 2524.6044,810.6157 Q2525.283,810.6157 2525.875,810.7745 Q2526.4815,810.9189 2526.9868,811.251 Z " fill="#000000"/><text fill="#000000" font-family="sans-serif" font-size="12.9375" lengthAdjust="spacing" textLength="63.7634" x="2543.3753" y="820.3567">FilledPlace</text><line style="stroke:#181818;stroke-width:0.4620538292711101;" x1="2404.0661" x2="2716.4145" y1="829.8487" y2="829.8487"/><line style="stroke:#181818;stroke-width:0.4620538292711101;" x1="2404.0661" x2="2716.4145" y1="837.2415" y2="837.2415"/><rect fill="#F24D5C" height="5.5446" style="stroke:#C82930;stroke-width:0.9241076585422202;" width="5.5446" x="2410.5348" y="847.6883"/><text fill="#000000" font-family="sans-serif" font-size="12.9375" lengthAdjust="spacing" textLength="290.1698" x="2421.6241" y="854.3682">ArrayList&lt;AbstractItem&gt; items = new ArrayList&lt;&gt;()</text><ellipse cx="2413.3072" cy="866.7336" fill="#84BE84" rx="2.7723" ry="2.7723" style="stroke:#038048;stroke-width:0.9241076585422202;"/><text fill="#000000" font-family="sans-serif" font-size="12.9375" lengthAdjust="spacing" textLength="143.2367" x="2421.6241" y="870.6412">FilledPlace(String name)</text><ellipse cx="2413.3072" cy="883.0065" fill="#84BE84" rx="2.7723" ry="2.7723" style="stroke:#038048;stroke-width:0.9241076585422202;"/><text fill="#000000" font-family="sans-serif" font-size="12.9375" lengthAdjust="spacing" textLength="182.9733" x="2421.6241" y="886.9141">void addItem(AbstractItem item)</text><ellipse cx="2413.3072" cy="899.2795" fill="#84BE84" rx="2.7723" ry="2.7723" style="stroke:#038048;stroke-width:0.9241076585422202;"/><text fill="#000000" font-family="sans-serif" font-size="12.9375" lengthAdjust="spacing" textLength="155.2501" x="2421.6241" y="903.1871">AbstractItem getItem(int id)</text><ellipse cx="2413.3072" cy="915.5524" fill="#84BE84" rx="2.7723" ry="2.7723" style="stroke:#038048;stroke-width:0.9241076585422202;"/><text fill="#000000" font-family="sans-serif" font-size="12.9375" lengthAdjust="spacing" textLength="98.8795" x="2421.6241" y="919.46">String getName()</text></g><!--class RegularShortly--><g id="elem_RegularShortly"><rect codeLine="54" fill="#F1F1F1" height="141.9949" id="RegularShortly" rx="2.3103" ry="2.3103" style="stroke:#181818;stroke-width:0.4620538292711101;" width="526.7414" x="620.5383" y="791.9603"/><ellipse cx="836.5485" cy="806.746" fill="#ADD1B2" rx="10.1652" ry="10.1652" style="stroke:#181818;stroke-width:0.9241076585422202;"/><path d="M839.1042,802.934 Q839.2486,802.7319 839.4219,802.6308 Q839.5951,802.5297 839.7973,802.5297 Q840.1438,802.5297 840.3604,802.7752 Q840.577,803.0062 840.577,803.5694 L840.577,804.9122 Q840.577,805.4753 840.3604,805.7208 Q840.1438,805.9663 839.7973,805.9663 Q839.4796,805.9663 839.2919,805.7786 Q839.1042,805.6053 839.0031,805.1288 Q838.9598,804.7967 838.7865,804.6234 Q838.4833,804.2769 837.9202,804.0747 Q837.3571,803.8726 836.7795,803.8726 Q836.072,803.8726 835.48,804.1758 Q834.9024,804.479 834.4403,805.1721 Q833.9927,805.8652 833.9927,806.8182 L833.9927,807.8289 Q833.9927,808.9696 834.8158,809.7349 Q835.6388,810.4857 837.1116,810.4857 Q837.9779,810.4857 838.5844,810.2547 Q838.9454,810.1103 839.3352,809.706 Q839.5807,809.4606 839.7106,809.3884 Q839.855,809.3162 840.0427,809.3162 Q840.346,809.3162 840.577,809.5616 Q840.8225,809.7927 840.8225,810.1103 Q840.8225,810.428 840.5048,810.8034 Q840.0427,811.3376 839.3063,811.6409 Q838.31,812.0596 837.1116,812.0596 Q835.711,812.0596 834.5992,811.482 Q833.6895,811.02 833.0542,810.0381 Q832.4189,809.0418 832.4189,807.8578 L832.4189,806.7893 Q832.4189,805.562 832.982,804.5079 Q833.5595,803.4394 834.5703,802.8763 Q835.581,802.2987 836.7217,802.2987 Q837.4004,802.2987 837.9924,802.4575 Q838.5988,802.6019 839.1042,802.934 Z " fill="#000000"/><text fill="#000000" font-family="sans-serif" font-size="12.9375" lengthAdjust="spacing" textLength="86.8661" x="855.4927" y="812.0398">RegularShortly</text><line style="stroke:#181818;stroke-width:0.4620538292711101;" x1="621.4624" x2="1146.3556" y1="821.5317" y2="821.5317"/><line style="stroke:#181818;stroke-width:0.4620538292711101;" x1="621.4624" x2="1146.3556" y1="828.9246" y2="828.9246"/><ellipse cx="630.7035" cy="842.1436" fill="#84BE84" rx="2.7723" ry="2.7723" style="stroke:#038048;stroke-width:0.9241076585422202;"/><text fill="#000000" font-family="sans-serif" font-size="12.9375" lengthAdjust="spacing" textLength="502.7146" x="639.0204" y="846.0512">RegularShortly(String name_1, String name_2, String name_3, AbstractPlace location)</text><ellipse cx="630.7035" cy="858.4166" fill="#84BE84" rx="2.7723" ry="2.7723" style="stroke:#038048;stroke-width:0.9241076585422202;"/><text fill="#000000" font-family="sans-serif" font-size="12.9375" lengthAdjust="spacing" textLength="303.1073" x="639.0204" y="862.3242">RegularShortly(String name, AbstractPlace location)</text><ellipse cx="630.7035" cy="874.6896" fill="#84BE84" rx="2.7723" ry="2.7723" style="stroke:#038048;stroke-width:0.9241076585422202;"/><text fill="#000000" font-family="sans-serif" font-size="12.9375" lengthAdjust="spacing" textLength="410.3038" x="639.0204" y="878.5972">RegularShortly(String name_1, String name_2, AbstractPlace location)</text><ellipse cx="630.7035" cy="890.9625" fill="#84BE84" rx="2.7723" ry="2.7723" style="stroke:#038048;stroke-width:0.9241076585422202;"/><text fill="#000000" font-family="sans-serif" font-size="12.9375" lengthAdjust="spacing" textLength="430.6342" x="639.0204" y="894.8701">boolean startDoThing(Task task, boolean include_location, String reason)</text><ellipse cx="630.7035" cy="907.2355" fill="#84BE84" rx="2.7723" ry="2.7723" style="stroke:#038048;stroke-width:0.9241076585422202;"/><text fill="#000000" font-family="sans-serif" font-size="12.9375" lengthAdjust="spacing" textLength="435.2547" x="639.0204" y="911.1431">boolean finishDoThing(Task task, boolean include_location, String reason)</text><ellipse cx="630.7035" cy="923.5084" fill="#84BE84" rx="2.7723" ry="2.7723" style="stroke:#038048;stroke-width:0.9241076585422202;"/><text fill="#000000" font-family="sans-serif" font-size="12.9375" lengthAdjust="spacing" textLength="425.0895" x="639.0204" y="927.416">boolean justDoThing(Task task, boolean include_location, String reason)</text></g><!--class SwitchableItem--><g id="elem_SwitchableItem"><rect codeLine="177" fill="#F1F1F1" height="125.722" id="SwitchableItem" rx="2.3103" ry="2.3103" style="stroke:#181818;stroke-width:0.4620538292711101;" width="189.4421" x="2804.6667" y="800.2772"/><ellipse cx="2852.4893" cy="815.063" fill="#ADD1B2" rx="10.1652" ry="10.1652" style="stroke:#181818;stroke-width:0.9241076585422202;"/><path d="M2855.0451,811.251 Q2855.1894,811.0489 2855.3627,810.9478 Q2855.536,810.8467 2855.7381,810.8467 Q2856.0847,810.8467 2856.3013,811.0922 Q2856.5178,811.3232 2856.5178,811.8863 L2856.5178,813.2292 Q2856.5178,813.7923 2856.3013,814.0378 Q2856.0847,814.2832 2855.7381,814.2832 Q2855.4205,814.2832 2855.2328,814.0955 Q2855.0451,813.9223 2854.944,813.4458 Q2854.9007,813.1137 2854.7274,812.9404 Q2854.4242,812.5939 2853.861,812.3917 Q2853.2979,812.1896 2852.7203,812.1896 Q2852.0128,812.1896 2851.4208,812.4928 Q2850.8432,812.796 2850.3812,813.4891 Q2849.9336,814.1822 2849.9336,815.1352 L2849.9336,816.1459 Q2849.9336,817.2866 2850.7566,818.0519 Q2851.5796,818.8027 2853.0524,818.8027 Q2853.9188,818.8027 2854.5252,818.5717 Q2854.8862,818.4273 2855.2761,818.023 Q2855.5215,817.7775 2855.6515,817.7053 Q2855.7959,817.6331 2855.9836,817.6331 Q2856.2868,817.6331 2856.5178,817.8786 Q2856.7633,818.1096 2856.7633,818.4273 Q2856.7633,818.7449 2856.4457,819.1204 Q2855.9836,819.6546 2855.2472,819.9578 Q2854.2509,820.3766 2853.0524,820.3766 Q2851.6518,820.3766 2850.54,819.799 Q2849.6304,819.337 2848.995,818.3551 Q2848.3597,817.3588 2848.3597,816.1748 L2848.3597,815.1063 Q2848.3597,813.8789 2848.9228,812.8249 Q2849.5004,811.7564 2850.5111,811.1933 Q2851.5219,810.6157 2852.6626,810.6157 Q2853.3412,810.6157 2853.9332,810.7745 Q2854.5397,810.9189 2855.0451,811.251 Z " fill="#000000"/><text fill="#000000" font-family="sans-serif" font-size="12.9375" lengthAdjust="spacing" textLength="85.942" x="2871.4335" y="820.3567">SwitchableItem</text><line style="stroke:#181818;stroke-width:0.4620538292711101;" x1="2805.5909" x2="2993.1847" y1="829.8487" y2="829.8487"/><rect fill="none" height="5.5446" style="stroke:#C82930;stroke-width:0.9241076585422202;" width="5.5446" x="2812.0596" y="840.2954"/><text fill="#000000" font-family="sans-serif" font-size="12.9375" lengthAdjust="spacing" textLength="121.9822" x="2823.1489" y="846.9754">boolean state = false</text><line style="stroke:#181818;stroke-width:0.4620538292711101;" x1="2805.5909" x2="2993.1847" y1="853.5145" y2="853.5145"/><ellipse cx="2814.8319" cy="866.7336" fill="#84BE84" rx="2.7723" ry="2.7723" style="stroke:#038048;stroke-width:0.9241076585422202;"/><text fill="#000000" font-family="sans-serif" font-size="12.9375" lengthAdjust="spacing" textLength="165.4153" x="2823.1489" y="870.6412">SwitchableItem(String name)</text><rect fill="#F24D5C" height="5.5446" style="stroke:#C82930;stroke-width:0.9241076585422202;" width="5.5446" x="2812.0596" y="880.2342"/><text fill="#000000" font-family="sans-serif" font-size="12.9375" lengthAdjust="spacing" textLength="77.625" x="2823.1489" y="886.9141">void turnOn()</text><rect fill="#F24D5C" height="5.5446" style="stroke:#C82930;stroke-width:0.9241076585422202;" width="5.5446" x="2812.0596" y="896.5072"/><text fill="#000000" font-family="sans-serif" font-size="12.9375" lengthAdjust="spacing" textLength="77.625" x="2823.1489" y="903.1871">void turnOff()</text><ellipse cx="2814.8319" cy="915.5524" fill="#84BE84" rx="2.7723" ry="2.7723" style="stroke:#038048;stroke-width:0.9241076585422202;"/><text fill="#000000" font-family="sans-serif" font-size="12.9375" lengthAdjust="spacing" textLength="80.3974" x="2823.1489" y="919.46">void interact()</text></g><!--class Phone--><g id="elem_Phone"><rect codeLine="165" fill="#F1F1F1" height="76.9031" id="Phone" rx="2.3103" ry="2.3103" style="stroke:#181818;stroke-width:0.4620538292711101;" width="141.3885" x="2964.5374" y="513.3418"/><ellipse cx="3012.3599" cy="528.1275" fill="#ADD1B2" rx="10.1652" ry="10.1652" style="stroke:#181818;stroke-width:0.9241076585422202;"/><path d="M3014.9157,524.3156 Q3015.0601,524.1134 3015.2333,524.0124 Q3015.4066,523.9113 3015.6088,523.9113 Q3015.9553,523.9113 3016.1719,524.1568 Q3016.3885,524.3878 3016.3885,524.9509 L3016.3885,526.2938 Q3016.3885,526.8569 3016.1719,527.1023 Q3015.9553,527.3478 3015.6088,527.3478 Q3015.2911,527.3478 3015.1034,527.1601 Q3014.9157,526.9868 3014.8146,526.5103 Q3014.7713,526.1782 3014.598,526.005 Q3014.2948,525.6584 3013.7317,525.4563 Q3013.1685,525.2541 3012.591,525.2541 Q3011.8834,525.2541 3011.2914,525.5574 Q3010.7139,525.8606 3010.2518,526.5537 Q3009.8042,527.2467 3009.8042,528.1997 L3009.8042,529.2105 Q3009.8042,530.3512 3010.6272,531.1164 Q3011.4503,531.8673 3012.9231,531.8673 Q3013.7894,531.8673 3014.3959,531.6362 Q3014.7568,531.4919 3015.1467,531.0876 Q3015.3922,530.8421 3015.5221,530.7699 Q3015.6665,530.6977 3015.8542,530.6977 Q3016.1574,530.6977 3016.3885,530.9432 Q3016.6339,531.1742 3016.6339,531.4919 Q3016.6339,531.8095 3016.3163,532.1849 Q3015.8542,532.7192 3015.1178,533.0224 Q3014.1215,533.4411 3012.9231,533.4411 Q3011.5225,533.4411 3010.4107,532.8636 Q3009.501,532.4015 3008.8657,531.4197 Q3008.2303,530.4234 3008.2303,529.2393 L3008.2303,528.1708 Q3008.2303,526.9435 3008.7935,525.8895 Q3009.371,524.821 3010.3818,524.2578 Q3011.3925,523.6803 3012.5332,523.6803 Q3013.2119,523.6803 3013.8039,523.8391 Q3014.4103,523.9835 3014.9157,524.3156 Z " fill="#000000"/><text fill="#000000" font-family="sans-serif" font-size="12.9375" lengthAdjust="spacing" textLength="37.8884" x="3031.3041" y="533.4213">Phone</text><line style="stroke:#181818;stroke-width:0.4620538292711101;" x1="2965.4615" x2="3105.0017" y1="542.9132" y2="542.9132"/><line style="stroke:#181818;stroke-width:0.4620538292711101;" x1="2965.4615" x2="3105.0017" y1="550.3061" y2="550.3061"/><ellipse cx="2974.7026" cy="563.5252" fill="#84BE84" rx="2.7723" ry="2.7723" style="stroke:#038048;stroke-width:0.9241076585422202;"/><text fill="#000000" font-family="sans-serif" font-size="12.9375" lengthAdjust="spacing" textLength="117.3617" x="2983.0195" y="567.4328">Phone(String name)</text><ellipse cx="2974.7026" cy="579.7981" fill="#84BE84" rx="2.7723" ry="2.7723" style="stroke:#038048;stroke-width:0.9241076585422202;"/><text fill="#000000" font-family="sans-serif" font-size="12.9375" lengthAdjust="spacing" textLength="80.3974" x="2983.0195" y="583.7057">void interact()</text></g><!--class MasterShorty--><g id="elem_MasterShorty"><rect codeLine="44" fill="#F1F1F1" height="141.9949" id="MasterShorty" rx="2.3103" ry="2.3103" style="stroke:#181818;stroke-width:0.4620538292711101;" width="581.2637" x="6.4688" y="791.9603"/><ellipse cx="254.3606" cy="806.746" fill="#ADD1B2" rx="10.1652" ry="10.1652" style="stroke:#181818;stroke-width:0.9241076585422202;"/><path d="M256.9164,802.934 Q257.0608,802.7319 257.234,802.6308 Q257.4073,802.5297 257.6094,802.5297 Q257.956,802.5297 258.1726,802.7752 Q258.3892,803.0062 258.3892,803.5694 L258.3892,804.9122 Q258.3892,805.4753 258.1726,805.7208 Q257.956,805.9663 257.6094,805.9663 Q257.2918,805.9663 257.1041,805.7786 Q256.9164,805.6053 256.8153,805.1288 Q256.772,804.7967 256.5987,804.6234 Q256.2955,804.2769 255.7324,804.0747 Q255.1692,803.8726 254.5917,803.8726 Q253.8841,803.8726 253.2921,804.1758 Q252.7146,804.479 252.2525,805.1721 Q251.8049,805.8652 251.8049,806.8182 L251.8049,807.8289 Q251.8049,808.9696 252.6279,809.7349 Q253.451,810.4857 254.9238,810.4857 Q255.7901,810.4857 256.3966,810.2547 Q256.7575,810.1103 257.1474,809.706 Q257.3929,809.4606 257.5228,809.3884 Q257.6672,809.3162 257.8549,809.3162 Q258.1581,809.3162 258.3892,809.5616 Q258.6346,809.7927 258.6346,810.1103 Q258.6346,810.428 258.317,810.8034 Q257.8549,811.3376 257.1185,811.6409 Q256.1222,812.0596 254.9238,812.0596 Q253.5232,812.0596 252.4113,811.482 Q251.5017,811.02 250.8664,810.0381 Q250.231,809.0418 250.231,807.8578 L250.231,806.7893 Q250.231,805.562 250.7942,804.5079 Q251.3717,803.4394 252.3825,802.8763 Q253.3932,802.2987 254.5339,802.2987 Q255.2125,802.2987 255.8046,802.4575 Q256.411,802.6019 256.9164,802.934 Z " fill="#000000"/><text fill="#000000" font-family="sans-serif" font-size="12.9375" lengthAdjust="spacing" textLength="77.625" x="273.3048" y="812.0398">MasterShorty</text><line style="stroke:#181818;stroke-width:0.4620538292711101;" x1="7.3929" x2="586.8084" y1="821.5317" y2="821.5317"/><rect fill="none" height="5.5446" style="stroke:#C82930;stroke-width:0.9241076585422202;" width="5.5446" x="13.8616" y="831.9785"/><text fill="#000000" font-family="sans-serif" font-size="12.9375" lengthAdjust="spacing" textLength="56.3706" x="24.9509" y="838.6584">Task task</text><line style="stroke:#181818;stroke-width:0.4620538292711101;" x1="7.3929" x2="586.8084" y1="845.1975" y2="845.1975"/><ellipse cx="16.6339" cy="858.4166" fill="#84BE84" rx="2.7723" ry="2.7723" style="stroke:#038048;stroke-width:0.9241076585422202;"/><text fill="#000000" font-family="sans-serif" font-size="12.9375" lengthAdjust="spacing" textLength="557.2369" x="24.9509" y="862.3242">MasterShorty(String name_1, String name_2, String name_3, AbstractPlace location, Task task)</text><ellipse cx="16.6339" cy="874.6896" fill="#84BE84" rx="2.7723" ry="2.7723" style="stroke:#038048;stroke-width:0.9241076585422202;"/><text fill="#000000" font-family="sans-serif" font-size="12.9375" lengthAdjust="spacing" textLength="357.6297" x="24.9509" y="878.5972">MasterShorty(String name, AbstractPlace location, Task task)</text><ellipse cx="16.6339" cy="890.9625" fill="#84BE84" rx="2.7723" ry="2.7723" style="stroke:#038048;stroke-width:0.9241076585422202;"/><text fill="#000000" font-family="sans-serif" font-size="12.9375" lengthAdjust="spacing" textLength="464.8262" x="24.9509" y="894.8701">MasterShorty(String name_1, String name_2, AbstractPlace location, Task task)</text><ellipse cx="16.6339" cy="907.2355" fill="#84BE84" rx="2.7723" ry="2.7723" style="stroke:#038048;stroke-width:0.9241076585422202;"/><text fill="#000000" font-family="sans-serif" font-size="12.9375" lengthAdjust="spacing" textLength="139.5403" x="24.9509" y="911.1431">void setTask(Task task)</text><ellipse cx="16.6339" cy="923.5084" fill="#84BE84" rx="2.7723" ry="2.7723" style="stroke:#038048;stroke-width:0.9241076585422202;"/><text fill="#000000" font-family="sans-serif" font-size="12.9375" lengthAdjust="spacing" textLength="88.7143" x="24.9509" y="927.416">Task getTask()</text></g><!--class SlaveShorty--><g id="elem_SlaveShorty"><rect codeLine="64" fill="#F1F1F1" height="207.0868" id="SlaveShorty" rx="2.3103" ry="2.3103" style="stroke:#181818;stroke-width:0.4620538292711101;" width="664.4334" x="1180.0855" y="759.6165"/><ellipse cx="1473.2586" cy="774.4022" fill="#ADD1B2" rx="10.1652" ry="10.1652" style="stroke:#181818;stroke-width:0.9241076585422202;"/><path d="M1475.8144,770.5903 Q1475.9588,770.3881 1476.132,770.2871 Q1476.3053,770.186 1476.5075,770.186 Q1476.854,770.186 1477.0706,770.4314 Q1477.2872,770.6625 1477.2872,771.2256 L1477.2872,772.5684 Q1477.2872,773.1316 1477.0706,773.377 Q1476.854,773.6225 1476.5075,773.6225 Q1476.1898,773.6225 1476.0021,773.4348 Q1475.8144,773.2615 1475.7133,772.785 Q1475.67,772.4529 1475.4967,772.2797 Q1475.1935,771.9331 1474.6304,771.731 Q1474.0672,771.5288 1473.4897,771.5288 Q1472.7821,771.5288 1472.1901,771.832 Q1471.6126,772.1353 1471.1505,772.8283 Q1470.7029,773.5214 1470.7029,774.4744 L1470.7029,775.4852 Q1470.7029,776.6259 1471.5259,777.3911 Q1472.349,778.142 1473.8218,778.142 Q1474.6881,778.142 1475.2946,777.9109 Q1475.6555,777.7665 1476.0454,777.3623 Q1476.2909,777.1168 1476.4208,777.0446 Q1476.5652,776.9724 1476.7529,776.9724 Q1477.0561,776.9724 1477.2872,777.2179 Q1477.5326,777.4489 1477.5326,777.7665 Q1477.5326,778.0842 1477.215,778.4596 Q1476.7529,778.9939 1476.0165,779.2971 Q1475.0202,779.7158 1473.8218,779.7158 Q1472.4212,779.7158 1471.3093,779.1383 Q1470.3997,778.6762 1469.7644,777.6944 Q1469.129,776.698 1469.129,775.514 L1469.129,774.4455 Q1469.129,773.2182 1469.6922,772.1641 Q1470.2697,771.0956 1471.2805,770.5325 Q1472.2912,769.9549 1473.4319,769.9549 Q1474.1105,769.9549 1474.7026,770.1138 Q1475.309,770.2582 1475.8144,770.5903 Z " fill="#000000"/><text fill="#000000" font-family="sans-serif" font-size="12.9375" lengthAdjust="spacing" textLength="70.2322" x="1492.2028" y="779.696">SlaveShorty</text><line style="stroke:#181818;stroke-width:0.4620538292711101;" x1="1181.0096" x2="1843.5948" y1="789.1879" y2="789.1879"/><rect fill="none" height="5.5446" style="stroke:#C82930;stroke-width:0.9241076585422202;" width="5.5446" x="1187.4783" y="799.6347"/><text fill="#000000" font-family="sans-serif" font-size="12.9375" lengthAdjust="spacing" textLength="121.0581" x="1198.5676" y="806.3146">MasterShorty master</text><rect fill="none" height="5.5446" style="stroke:#C82930;stroke-width:0.9241076585422202;" width="5.5446" x="1187.4783" y="815.9076"/><text fill="#000000" font-family="sans-serif" font-size="12.9375" lengthAdjust="spacing" textLength="146.009" x="1198.5676" y="822.5876">boolean unlocked = false</text><line style="stroke:#181818;stroke-width:0.4620538292711101;" x1="1181.0096" x2="1843.5948" y1="829.1267" y2="829.1267"/><rect fill="#F24D5C" height="5.5446" style="stroke:#C82930;stroke-width:0.9241076585422202;" width="5.5446" x="1187.4783" y="839.5735"/><text fill="#000000" font-family="sans-serif" font-size="12.9375" lengthAdjust="spacing" textLength="171.884" x="1198.5676" y="846.2534">Random rng = new Random()</text><ellipse cx="1190.2507" cy="858.6187" fill="#84BE84" rx="2.7723" ry="2.7723" style="stroke:#038048;stroke-width:0.9241076585422202;"/><text fill="#000000" font-family="sans-serif" font-size="12.9375" lengthAdjust="spacing" textLength="614.5316" x="1198.5676" y="862.5264">SlaveShorty(String name_1, String name_2, String name_3, AbstractPlace location, MasterShorty master)</text><ellipse cx="1190.2507" cy="874.8917" fill="#84BE84" rx="2.7723" ry="2.7723" style="stroke:#038048;stroke-width:0.9241076585422202;"/><text fill="#000000" font-family="sans-serif" font-size="12.9375" lengthAdjust="spacing" textLength="414.9243" x="1198.5676" y="878.7993">SlaveShorty(String name, AbstractPlace location, MasterShorty master)</text><ellipse cx="1190.2507" cy="891.1647" fill="#84BE84" rx="2.7723" ry="2.7723" style="stroke:#038048;stroke-width:0.9241076585422202;"/><text fill="#000000" font-family="sans-serif" font-size="12.9375" lengthAdjust="spacing" textLength="522.1208" x="1198.5676" y="895.0723">SlaveShorty(String name_1, String name_2, AbstractPlace location, MasterShorty master)</text><ellipse cx="1190.2507" cy="907.4376" fill="#84BE84" rx="2.7723" ry="2.7723" style="stroke:#038048;stroke-width:0.9241076585422202;"/><text fill="#000000" font-family="sans-serif" font-size="12.9375" lengthAdjust="spacing" textLength="135.8438" x="1198.5676" y="911.3452">void unlockNextAction()</text><ellipse cx="1190.2507" cy="923.7106" fill="#84BE84" rx="2.7723" ry="2.7723" style="stroke:#038048;stroke-width:0.9241076585422202;"/><text fill="#000000" font-family="sans-serif" font-size="12.9375" lengthAdjust="spacing" textLength="635.7861" x="1198.5676" y="927.6182">boolean startDoThing(Task task, boolean include_location, String reason) throws NotPermittedTaskException</text><ellipse cx="1190.2507" cy="939.9835" fill="#84BE84" rx="2.7723" ry="2.7723" style="stroke:#038048;stroke-width:0.9241076585422202;"/><text fill="#000000" font-family="sans-serif" font-size="12.9375" lengthAdjust="spacing" textLength="640.4066" x="1198.5676" y="943.8911">boolean finishDoThing(Task task, boolean include_location, String reason) throws NotPermittedTaskException</text><ellipse cx="1190.2507" cy="956.2565" fill="#84BE84" rx="2.7723" ry="2.7723" style="stroke:#038048;stroke-width:0.9241076585422202;"/><text fill="#000000" font-family="sans-serif" font-size="12.9375" lengthAdjust="spacing" textLength="630.2414" x="1198.5676" y="960.1641">boolean justDoThing(Task task, boolean include_location, String reason) throws NotPermittedTaskException</text></g><!--class AbstractShorty--><g id="elem_AbstractShorty"><rect codeLine="24" fill="#F1F1F1" height="304.7245" id="AbstractShorty" rx="2.3103" ry="2.3103" style="stroke:#181818;stroke-width:0.4620538292711101;" width="525.8173" x="840.938" y="399.2145"/><ellipse cx="1056.9481" cy="414.0002" fill="#A9DCDF" rx="10.1652" ry="10.1652" style="stroke:#181818;stroke-width:0.9241076585422202;"/><path d="M1058.9696,415.6319 L1055.1432,415.6319 L1054.7534,416.5848 L1055.1432,416.5848 Q1055.7064,416.5848 1055.9518,416.8014 Q1056.1973,417.018 1056.1973,417.379 Q1056.1973,417.7255 1055.9518,417.9421 Q1055.7064,418.1587 1055.1432,418.1587 L1053.0207,418.1587 Q1052.4575,418.1587 1052.2265,417.9421 Q1051.9811,417.7255 1051.9811,417.3646 Q1051.9811,417.018 1052.241,416.8014 Q1052.4864,416.5704 1053.064,416.5848 L1055.5331,410.4338 L1054.5079,410.4338 Q1053.9448,410.4338 1053.6993,410.2172 Q1053.4539,410.0006 1053.4539,409.6396 Q1053.4539,409.2931 1053.6993,409.0765 Q1053.9448,408.8599 1054.5079,408.8599 L1057.9011,408.8599 L1061.0344,416.5848 Q1061.5831,416.5848 1061.7564,416.7148 Q1062.1174,416.9603 1062.1174,417.379 Q1062.1174,417.7255 1061.8719,417.9421 Q1061.6409,418.1587 1061.0777,418.1587 L1058.9552,418.1587 Q1058.3921,418.1587 1058.1466,417.9421 Q1057.9011,417.7255 1057.9011,417.3646 Q1057.9011,417.018 1058.1466,416.8014 Q1058.3921,416.5848 1058.9552,416.5848 L1059.345,416.5848 L1058.9696,415.6319 Z M1058.3054,414.058 L1057.0492,410.9391 L1055.7786,414.058 L1058.3054,414.058 Z " fill="#000000"/><text fill="#000000" font-family="sans-serif" font-size="12.9375" font-style="italic" lengthAdjust="spacing" textLength="85.942" x="1075.8923" y="419.294">AbstractShorty</text><line style="stroke:#181818;stroke-width:0.4620538292711101;" x1="841.8621" x2="1365.8311" y1="428.786" y2="428.786"/><rect fill="none" height="5.5446" style="stroke:#C82930;stroke-width:0.9241076585422202;" width="5.5446" x="848.3308" y="439.2327"/><text fill="#000000" font-family="sans-serif" font-size="12.9375" lengthAdjust="spacing" textLength="118.2858" x="859.4201" y="445.9126">NamesRecord name</text><rect fill="none" height="5.5446" style="stroke:#C82930;stroke-width:0.9241076585422202;" width="5.5446" x="848.3308" y="455.5057"/><text fill="#000000" font-family="sans-serif" font-size="12.9375" lengthAdjust="spacing" textLength="129.3751" x="859.4201" y="462.1856">AbstractPlace location</text><rect fill="none" height="5.5446" style="stroke:#C82930;stroke-width:0.9241076585422202;" width="5.5446" x="848.3308" y="471.7786"/><text fill="#000000" font-family="sans-serif" font-size="12.9375" lengthAdjust="spacing" textLength="121.0581" x="859.4201" y="478.4585">int current_name = 1</text><line style="stroke:#181818;stroke-width:0.4620538292711101;" x1="841.8621" x2="1365.8311" y1="484.9977" y2="484.9977"/><ellipse cx="851.1032" cy="498.2168" fill="#84BE84" rx="2.7723" ry="2.7723" style="stroke:#038048;stroke-width:0.9241076585422202;"/><text fill="#000000" font-family="sans-serif" font-size="12.9375" lengthAdjust="spacing" textLength="501.7905" x="859.4201" y="502.1244">AbstractShorty(String name_1, String name_2, String name_3, AbstractPlace location)</text><ellipse cx="851.1032" cy="514.4897" fill="#84BE84" rx="2.7723" ry="2.7723" style="stroke:#038048;stroke-width:0.9241076585422202;"/><text fill="#000000" font-family="sans-serif" font-size="12.9375" lengthAdjust="spacing" textLength="302.1832" x="859.4201" y="518.3973">AbstractShorty(String name, AbstractPlace location)</text><ellipse cx="851.1032" cy="530.7627" fill="#84BE84" rx="2.7723" ry="2.7723" style="stroke:#038048;stroke-width:0.9241076585422202;"/><text fill="#000000" font-family="sans-serif" font-size="12.9375" lengthAdjust="spacing" textLength="409.3797" x="859.4201" y="534.6703">AbstractShorty(String name_1, String name_2, AbstractPlace location)</text><ellipse cx="851.1032" cy="547.0356" fill="#84BE84" rx="2.7723" ry="2.7723" style="stroke:#038048;stroke-width:0.9241076585422202;"/><text fill="#000000" font-family="sans-serif" font-size="12.9375" lengthAdjust="spacing" textLength="130.2992" x="859.4201" y="550.9432">void selectFirstName()</text><ellipse cx="851.1032" cy="563.3086" fill="#84BE84" rx="2.7723" ry="2.7723" style="stroke:#038048;stroke-width:0.9241076585422202;"/><text fill="#000000" font-family="sans-serif" font-size="12.9375" lengthAdjust="spacing" textLength="148.7813" x="859.4201" y="567.2162">void selectSecondName()</text><ellipse cx="851.1032" cy="579.5816" fill="#84BE84" rx="2.7723" ry="2.7723" style="stroke:#038048;stroke-width:0.9241076585422202;"/><text fill="#000000" font-family="sans-serif" font-size="12.9375" lengthAdjust="spacing" textLength="134.9197" x="859.4201" y="583.4892">void selectThirdName()</text><ellipse cx="851.1032" cy="595.8545" fill="#84BE84" rx="2.7723" ry="2.7723" style="stroke:#038048;stroke-width:0.9241076585422202;"/><text fill="#000000" font-family="sans-serif" font-size="12.9375" lengthAdjust="spacing" textLength="161.7188" x="859.4201" y="599.7621">AbstractPlace getLocation()</text><ellipse cx="851.1032" cy="612.1275" fill="#84BE84" rx="2.7723" ry="2.7723" style="stroke:#038048;stroke-width:0.9241076585422202;"/><text fill="#000000" font-family="sans-serif" font-size="12.9375" lengthAdjust="spacing" textLength="233.7992" x="859.4201" y="616.0351">void setLocation(AbstractPlace location)</text><ellipse cx="851.1032" cy="628.4004" fill="#84BE84" rx="2.7723" ry="2.7723" style="stroke:#038048;stroke-width:0.9241076585422202;"/><text fill="#000000" font-family="sans-serif" font-size="12.9375" lengthAdjust="spacing" textLength="98.8795" x="859.4201" y="632.308">String getName()</text><ellipse cx="851.1032" cy="644.6734" fill="#84BE84" rx="2.7723" ry="2.7723" style="stroke:#038048;stroke-width:0.9241076585422202;"/><text fill="#000000" font-family="sans-serif" font-size="12.9375" lengthAdjust="spacing" textLength="96.1072" x="859.4201" y="648.581">void printName()</text><ellipse cx="851.1032" cy="660.9463" fill="#84BE84" rx="2.7723" ry="2.7723" style="stroke:#038048;stroke-width:0.9241076585422202;"/><text fill="#000000" font-family="sans-serif" font-size="12.9375" lengthAdjust="spacing" textLength="208.8483" x="859.4201" y="664.8539">boolean equals(Object otherObject)</text><ellipse cx="851.1032" cy="677.2193" fill="#84BE84" rx="2.7723" ry="2.7723" style="stroke:#038048;stroke-width:0.9241076585422202;"/><text fill="#000000" font-family="sans-serif" font-size="12.9375" lengthAdjust="spacing" textLength="86.8661" x="859.4201" y="681.1269">int hashCode()</text><ellipse cx="851.1032" cy="693.4923" fill="#84BE84" rx="2.7723" ry="2.7723" style="stroke:#038048;stroke-width:0.9241076585422202;"/><text fill="#000000" font-family="sans-serif" font-size="12.9375" lengthAdjust="spacing" textLength="92.4108" x="859.4201" y="697.3999">String toString()</text></g><!--class ICanSetTask--><g id="elem_ICanSetTask"><rect codeLine="93" fill="#F1F1F1" height="76.9031" id="ICanSetTask" rx="2.3103" ry="2.3103" style="stroke:#181818;stroke-width:0.4620538292711101;" width="150.6295" x="112.7411" y="513.3418"/><ellipse cx="146.5635" cy="528.1275" fill="#B4A7E5" rx="10.1652" ry="10.1652" style="stroke:#181818;stroke-width:0.9241076585422202;"/><path d="M147.4443,525.0231 L147.4443,531.1742 L149.0326,531.1742 Q149.5957,531.1742 149.8412,531.3908 Q150.0866,531.6074 150.0866,531.9683 Q150.0866,532.3149 149.8412,532.5315 Q149.5957,532.7481 149.0326,532.7481 L144.2821,532.7481 Q143.719,532.7481 143.4735,532.5315 Q143.228,532.3149 143.228,531.9539 Q143.228,531.6074 143.4735,531.3908 Q143.719,531.1742 144.2821,531.1742 L145.8704,531.1742 L145.8704,525.0231 L144.2821,525.0231 Q143.719,525.0231 143.4735,524.8065 Q143.228,524.5899 143.228,524.2289 Q143.228,523.8824 143.4735,523.6658 Q143.719,523.4492 144.2821,523.4492 L149.0326,523.4492 Q149.5957,523.4492 149.8412,523.6658 Q150.0866,523.8824 150.0866,524.2289 Q150.0866,524.5899 149.8412,524.8065 Q149.5957,525.0231 149.0326,525.0231 L147.4443,525.0231 Z " fill="#000000"/><text fill="#000000" font-family="sans-serif" font-size="12.9375" font-style="italic" lengthAdjust="spacing" textLength="76.7009" x="163.9367" y="533.4213">ICanSetTask</text><line style="stroke:#181818;stroke-width:0.4620538292711101;" x1="113.6652" x2="262.4466" y1="542.9132" y2="542.9132"/><line style="stroke:#181818;stroke-width:0.4620538292711101;" x1="113.6652" x2="262.4466" y1="550.3061" y2="550.3061"/><text fill="#000000" font-family="sans-serif" font-size="12.9375" lengthAdjust="spacing" textLength="88.7143" x="118.2858" y="567.4328">Task getTask()</text><text fill="#000000" font-family="sans-serif" font-size="12.9375" lengthAdjust="spacing" textLength="139.5403" x="118.2858" y="583.7057">void setTask(Task task)</text></g><!--class ICanDoSomething--><g id="elem_ICanDoSomething"><rect codeLine="80" fill="#F1F1F1" height="174.5408" id="ICanDoSomething" rx="2.3103" ry="2.3103" style="stroke:#181818;stroke-width:0.4620538292711101;" width="446.344" x="362.2502" y="464.3641"/><ellipse cx="528.3586" cy="479.1498" fill="#B4A7E5" rx="10.1652" ry="10.1652" style="stroke:#181818;stroke-width:0.9241076585422202;"/><path d="M529.2393,476.0454 L529.2393,482.1965 L530.8277,482.1965 Q531.3908,482.1965 531.6362,482.4131 Q531.8817,482.6297 531.8817,482.9906 Q531.8817,483.3372 531.6362,483.5538 Q531.3908,483.7704 530.8277,483.7704 L526.0772,483.7704 Q525.514,483.7704 525.2686,483.5538 Q525.0231,483.3372 525.0231,482.9762 Q525.0231,482.6297 525.2686,482.4131 Q525.514,482.1965 526.0772,482.1965 L527.6655,482.1965 L527.6655,476.0454 L526.0772,476.0454 Q525.514,476.0454 525.2686,475.8288 Q525.0231,475.6122 525.0231,475.2512 Q525.0231,474.9047 525.2686,474.6881 Q525.514,474.4715 526.0772,474.4715 L530.8277,474.4715 Q531.3908,474.4715 531.6362,474.6881 Q531.8817,474.9047 531.8817,475.2512 Q531.8817,475.6122 531.6362,475.8288 Q531.3908,476.0454 530.8277,476.0454 L529.2393,476.0454 Z " fill="#000000"/><text fill="#000000" font-family="sans-serif" font-size="12.9375" font-style="italic" lengthAdjust="spacing" textLength="106.2724" x="547.3028" y="484.4436">ICanDoSomething</text><line style="stroke:#181818;stroke-width:0.4620538292711101;" x1="363.1743" x2="807.6701" y1="493.9355" y2="493.9355"/><line style="stroke:#181818;stroke-width:0.4620538292711101;" x1="363.1743" x2="807.6701" y1="501.3284" y2="501.3284"/><text fill="#000000" font-family="sans-serif" font-size="12.9375" lengthAdjust="spacing" textLength="430.6342" x="367.7948" y="518.4551">boolean startDoThing(Task task, boolean include_location, String reason)</text><text fill="#000000" font-family="sans-serif" font-size="12.9375" lengthAdjust="spacing" textLength="435.2547" x="367.7948" y="534.728">boolean finishDoThing(Task task, boolean include_location, String reason)</text><text fill="#000000" font-family="sans-serif" font-size="12.9375" lengthAdjust="spacing" textLength="425.0895" x="367.7948" y="551.001">boolean justDoThing(Task task, boolean include_location, String reason)</text><text fill="#000000" font-family="sans-serif" font-size="12.9375" lengthAdjust="spacing" textLength="388.1252" x="367.7948" y="567.274">default boolean startDoThing(Task task, boolean include_location)</text><text fill="#000000" font-family="sans-serif" font-size="12.9375" lengthAdjust="spacing" textLength="3.6964" x="367.7948" y="583.5469">&#160;</text><text fill="#000000" font-family="sans-serif" font-size="12.9375" lengthAdjust="spacing" textLength="392.7458" x="367.7948" y="599.8199">default boolean finishDoThing(Task task, boolean include_location)</text><text fill="#000000" font-family="sans-serif" font-size="12.9375" lengthAdjust="spacing" textLength="3.6964" x="367.7948" y="616.0928">&#160;</text><text fill="#000000" font-family="sans-serif" font-size="12.9375" lengthAdjust="spacing" textLength="382.5806" x="367.7948" y="632.3658">default boolean justDoThing(Task task, boolean include_location)</text></g><!--class ISlave--><g id="elem_ISlave"><rect codeLine="99" fill="#F1F1F1" height="190.8138" id="ISlave" rx="2.3103" ry="2.3103" style="stroke:#181818;stroke-width:0.4620538292711101;" width="651.4959" x="1562.6661" y="456.5092"/><ellipse cx="1866.9285" cy="471.2949" fill="#B4A7E5" rx="10.1652" ry="10.1652" style="stroke:#181818;stroke-width:0.9241076585422202;"/><path d="M1867.8093,468.1905 L1867.8093,474.3416 L1869.3976,474.3416 Q1869.9607,474.3416 1870.2062,474.5582 Q1870.4517,474.7747 1870.4517,475.1357 Q1870.4517,475.4823 1870.2062,475.6989 Q1869.9607,475.9154 1869.3976,475.9154 L1864.6471,475.9154 Q1864.084,475.9154 1863.8385,475.6989 Q1863.593,475.4823 1863.593,475.1213 Q1863.593,474.7747 1863.8385,474.5582 Q1864.084,474.3416 1864.6471,474.3416 L1866.2354,474.3416 L1866.2354,468.1905 L1864.6471,468.1905 Q1864.084,468.1905 1863.8385,467.9739 Q1863.593,467.7573 1863.593,467.3963 Q1863.593,467.0498 1863.8385,466.8332 Q1864.084,466.6166 1864.6471,466.6166 L1869.3976,466.6166 Q1869.9607,466.6166 1870.2062,466.8332 Q1870.4517,467.0498 1870.4517,467.3963 Q1870.4517,467.7573 1870.2062,467.9739 Q1869.9607,468.1905 1869.3976,468.1905 L1867.8093,468.1905 Z " fill="#000000"/><text fill="#000000" font-family="sans-serif" font-size="12.9375" font-style="italic" lengthAdjust="spacing" textLength="35.1161" x="1885.8727" y="476.5887">ISlave</text><line style="stroke:#181818;stroke-width:0.4620538292711101;" x1="1563.5902" x2="2213.2378" y1="486.0806" y2="486.0806"/><line style="stroke:#181818;stroke-width:0.4620538292711101;" x1="1563.5902" x2="2213.2378" y1="493.4735" y2="493.4735"/><text fill="#000000" font-family="sans-serif" font-size="12.9375" lengthAdjust="spacing" textLength="135.8438" x="1568.2107" y="510.6002">void unlockNextAction()</text><text fill="#000000" font-family="sans-serif" font-size="12.9375" lengthAdjust="spacing" textLength="635.7861" x="1568.2107" y="526.8731">boolean startDoThing(Task task, boolean include_location, String reason) throws NotPermittedTaskException</text><text fill="#000000" font-family="sans-serif" font-size="12.9375" lengthAdjust="spacing" textLength="640.4066" x="1568.2107" y="543.1461">boolean finishDoThing(Task task, boolean include_location, String reason) throws NotPermittedTaskException</text><text fill="#000000" font-family="sans-serif" font-size="12.9375" lengthAdjust="spacing" textLength="630.2414" x="1568.2107" y="559.419">boolean justDoThing(Task task, boolean include_location, String reason) throws NotPermittedTaskException</text><text fill="#000000" font-family="sans-serif" font-size="12.9375" lengthAdjust="spacing" textLength="593.2771" x="1568.2107" y="575.692">default boolean startDoThing(Task task, boolean include_location) throws NotPermittedTaskException</text><text fill="#000000" font-family="sans-serif" font-size="12.9375" lengthAdjust="spacing" textLength="3.6964" x="1568.2107" y="591.965">&#160;</text><text fill="#000000" font-family="sans-serif" font-size="12.9375" lengthAdjust="spacing" textLength="597.8977" x="1568.2107" y="608.2379">default boolean finishDoThing(Task task, boolean include_location) throws NotPermittedTaskException</text><text fill="#000000" font-family="sans-serif" font-size="12.9375" lengthAdjust="spacing" textLength="3.6964" x="1568.2107" y="624.5109">&#160;</text><text fill="#000000" font-family="sans-serif" font-size="12.9375" lengthAdjust="spacing" textLength="587.7325" x="1568.2107" y="640.7838">default boolean justDoThing(Task task, boolean include_location) throws NotPermittedTaskException</text></g><!--class NotPermittedTaskException--><g id="elem_NotPermittedTaskException"><rect codeLine="186" fill="#F1F1F1" height="76.9031" id="NotPermittedTaskException" rx="2.3103" ry="2.3103" style="stroke:#181818;stroke-width:0.4620538292711101;" width="283.7011" x="1370.4517" y="1121.8667"/><ellipse cx="1428.4394" cy="1136.6524" fill="#ADD1B2" rx="10.1652" ry="10.1652" style="stroke:#181818;stroke-width:0.9241076585422202;"/><path d="M1430.9951,1132.8405 Q1431.1395,1132.6383 1431.3128,1132.5373 Q1431.4861,1132.4362 1431.6882,1132.4362 Q1432.0348,1132.4362 1432.2514,1132.6816 Q1432.4679,1132.9127 1432.4679,1133.4758 L1432.4679,1134.8186 Q1432.4679,1135.3818 1432.2514,1135.6272 Q1432.0348,1135.8727 1431.6882,1135.8727 Q1431.3706,1135.8727 1431.1829,1135.685 Q1430.9951,1135.5117 1430.8941,1135.0352 Q1430.8508,1134.7031 1430.6775,1134.5299 Q1430.3743,1134.1833 1429.8111,1133.9812 Q1429.248,1133.779 1428.6704,1133.779 Q1427.9629,1133.779 1427.3709,1134.0822 Q1426.7933,1134.3855 1426.3313,1135.0785 Q1425.8837,1135.7716 1425.8837,1136.7246 L1425.8837,1137.7354 Q1425.8837,1138.8761 1426.7067,1139.6413 Q1427.5297,1140.3922 1429.0025,1140.3922 Q1429.8689,1140.3922 1430.4753,1140.1611 Q1430.8363,1140.0167 1431.2262,1139.6125 Q1431.4716,1139.367 1431.6016,1139.2948 Q1431.746,1139.2226 1431.9337,1139.2226 Q1432.2369,1139.2226 1432.4679,1139.4681 Q1432.7134,1139.6991 1432.7134,1140.0167 Q1432.7134,1140.3344 1432.3957,1140.7098 Q1431.9337,1141.2441 1431.1973,1141.5473 Q1430.201,1141.966 1429.0025,1141.966 Q1427.6019,1141.966 1426.4901,1141.3885 Q1425.5805,1140.9264 1424.9451,1139.9446 Q1424.3098,1138.9482 1424.3098,1137.7642 L1424.3098,1136.6957 Q1424.3098,1135.4684 1424.8729,1134.4143 Q1425.4505,1133.3458 1426.4612,1132.7827 Q1427.472,1132.2052 1428.6127,1132.2052 Q1429.2913,1132.2052 1429.8833,1132.364 Q1430.4898,1132.5084 1430.9951,1132.8405 Z " fill="#000000"/><text fill="#000000" font-family="sans-serif" font-size="12.9375" lengthAdjust="spacing" textLength="159.8706" x="1447.3836" y="1141.9462">NotPermittedTaskException</text><line style="stroke:#181818;stroke-width:0.4620538292711101;" x1="1371.3758" x2="1653.2286" y1="1151.4381" y2="1151.4381"/><line style="stroke:#181818;stroke-width:0.4620538292711101;" x1="1371.3758" x2="1653.2286" y1="1158.831" y2="1158.831"/><ellipse cx="1380.6168" cy="1172.0501" fill="#84BE84" rx="2.7723" ry="2.7723" style="stroke:#038048;stroke-width:0.9241076585422202;"/><text fill="#000000" font-family="sans-serif" font-size="12.9375" lengthAdjust="spacing" textLength="259.6743" x="1388.9338" y="1175.9577">NotPermittedTaskException(String message)</text><ellipse cx="1380.6168" cy="1188.323" fill="#84BE84" rx="2.7723" ry="2.7723" style="stroke:#038048;stroke-width:0.9241076585422202;"/><text fill="#000000" font-family="sans-serif" font-size="12.9375" lengthAdjust="spacing" textLength="118.2858" x="1388.9338" y="1192.2306">String getMessage()</text></g><!--class AbstractPlace--><g id="elem_AbstractPlace"><rect codeLine="113" fill="#F1F1F1" height="158.2679" id="AbstractPlace" rx="2.3103" ry="2.3103" style="stroke:#181818;stroke-width:0.4620538292711101;" width="232.8751" x="2246.9678" y="472.6811"/><ellipse cx="2319.2792" cy="487.4668" fill="#A9DCDF" rx="10.1652" ry="10.1652" style="stroke:#181818;stroke-width:0.9241076585422202;"/><path d="M2321.3007,489.0984 L2317.4743,489.0984 L2317.0844,490.0514 L2317.4743,490.0514 Q2318.0374,490.0514 2318.2829,490.268 Q2318.5284,490.4846 2318.5284,490.8456 Q2318.5284,491.1921 2318.2829,491.4087 Q2318.0374,491.6253 2317.4743,491.6253 L2315.3517,491.6253 Q2314.7886,491.6253 2314.5576,491.4087 Q2314.3121,491.1921 2314.3121,490.8311 Q2314.3121,490.4846 2314.572,490.268 Q2314.8175,490.037 2315.3951,490.0514 L2317.8642,483.9003 L2316.839,483.9003 Q2316.2758,483.9003 2316.0304,483.6837 Q2315.7849,483.4671 2315.7849,483.1062 Q2315.7849,482.7596 2316.0304,482.543 Q2316.2758,482.3264 2316.839,482.3264 L2320.2322,482.3264 L2323.3655,490.0514 Q2323.9142,490.0514 2324.0874,490.1814 Q2324.4484,490.4268 2324.4484,490.8456 Q2324.4484,491.1921 2324.203,491.4087 Q2323.9719,491.6253 2323.4088,491.6253 L2321.2862,491.6253 Q2320.7231,491.6253 2320.4776,491.4087 Q2320.2322,491.1921 2320.2322,490.8311 Q2320.2322,490.4846 2320.4776,490.268 Q2320.7231,490.0514 2321.2862,490.0514 L2321.6761,490.0514 L2321.3007,489.0984 Z M2320.6365,487.5245 L2319.3803,484.4057 L2318.1096,487.5245 L2320.6365,487.5245 Z " fill="#000000"/><text fill="#000000" font-family="sans-serif" font-size="12.9375" font-style="italic" lengthAdjust="spacing" textLength="80.3974" x="2338.2234" y="492.7606">AbstractPlace</text><line style="stroke:#181818;stroke-width:0.4620538292711101;" x1="2247.8919" x2="2478.9188" y1="502.2525" y2="502.2525"/><rect fill="none" height="5.5446" style="stroke:#C82930;stroke-width:0.9241076585422202;" width="5.5446" x="2254.3606" y="512.6993"/><text fill="#000000" font-family="sans-serif" font-size="12.9375" lengthAdjust="spacing" textLength="70.2322" x="2265.4499" y="519.3792">String name</text><line style="stroke:#181818;stroke-width:0.4620538292711101;" x1="2247.8919" x2="2478.9188" y1="525.9183" y2="525.9183"/><polygon fill="#FFFF44" points="2257.133,534.5169,2260.8294,538.2133,2257.133,541.9097,2253.4365,538.2133" style="stroke:#B38D22;stroke-width:0.9241076585422202;"/><text fill="#000000" font-family="sans-serif" font-size="12.9375" lengthAdjust="spacing" textLength="159.8706" x="2265.4499" y="543.045">AbstractPlace(String name)</text><polygon fill="#FFFF44" points="2257.133,550.7898,2260.8294,554.4863,2257.133,558.1827,2253.4365,554.4863" style="stroke:#B38D22;stroke-width:0.9241076585422202;"/><text fill="#000000" font-family="sans-serif" font-size="12.9375" lengthAdjust="spacing" textLength="131.2233" x="2265.4499" y="559.318">String getPlaceName()</text><text fill="#000000" font-family="sans-serif" font-size="12.9375" lengthAdjust="spacing" textLength="157.0983" x="2265.4499" y="575.5909">abstract +String getName()</text><ellipse cx="2257.133" cy="587.9563" fill="#84BE84" rx="2.7723" ry="2.7723" style="stroke:#038048;stroke-width:0.9241076585422202;"/><text fill="#000000" font-family="sans-serif" font-size="12.9375" lengthAdjust="spacing" textLength="208.8483" x="2265.4499" y="591.8639">boolean equals(Object otherObject)</text><ellipse cx="2257.133" cy="604.2292" fill="#84BE84" rx="2.7723" ry="2.7723" style="stroke:#038048;stroke-width:0.9241076585422202;"/><text fill="#000000" font-family="sans-serif" font-size="12.9375" lengthAdjust="spacing" textLength="86.8661" x="2265.4499" y="608.1368">int hashCode()</text><ellipse cx="2257.133" cy="620.5022" fill="#84BE84" rx="2.7723" ry="2.7723" style="stroke:#038048;stroke-width:0.9241076585422202;"/><text fill="#000000" font-family="sans-serif" font-size="12.9375" lengthAdjust="spacing" textLength="92.4108" x="2265.4499" y="624.4098">String toString()</text></g><!--class IHasItems--><g id="elem_IHasItems"><rect codeLine="139" fill="#F1F1F1" height="76.9031" id="IHasItems" rx="2.3103" ry="2.3103" style="stroke:#181818;stroke-width:0.4620538292711101;" width="194.0626" x="2640.6376" y="513.3418"/><ellipse cx="2704.6321" cy="528.1275" fill="#B4A7E5" rx="10.1652" ry="10.1652" style="stroke:#181818;stroke-width:0.9241076585422202;"/><path d="M2705.5129,525.0231 L2705.5129,531.1742 L2707.1012,531.1742 Q2707.6643,531.1742 2707.9098,531.3908 Q2708.1553,531.6074 2708.1553,531.9683 Q2708.1553,532.3149 2707.9098,532.5315 Q2707.6643,532.7481 2707.1012,532.7481 L2702.3507,532.7481 Q2701.7876,532.7481 2701.5421,532.5315 Q2701.2966,532.3149 2701.2966,531.9539 Q2701.2966,531.6074 2701.5421,531.3908 Q2701.7876,531.1742 2702.3507,531.1742 L2703.939,531.1742 L2703.939,525.0231 L2702.3507,525.0231 Q2701.7876,525.0231 2701.5421,524.8065 Q2701.2966,524.5899 2701.2966,524.2289 Q2701.2966,523.8824 2701.5421,523.6658 Q2701.7876,523.4492 2702.3507,523.4492 L2707.1012,523.4492 Q2707.6643,523.4492 2707.9098,523.6658 Q2708.1553,523.8824 2708.1553,524.2289 Q2708.1553,524.5899 2707.9098,524.8065 Q2707.6643,525.0231 2707.1012,525.0231 L2705.5129,525.0231 Z " fill="#000000"/><text fill="#000000" font-family="sans-serif" font-size="12.9375" font-style="italic" lengthAdjust="spacing" textLength="58.2188" x="2723.5763" y="533.4213">IHasItems</text><line style="stroke:#181818;stroke-width:0.4620538292711101;" x1="2641.5617" x2="2833.7761" y1="542.9132" y2="542.9132"/><line style="stroke:#181818;stroke-width:0.4620538292711101;" x1="2641.5617" x2="2833.7761" y1="550.3061" y2="550.3061"/><text fill="#000000" font-family="sans-serif" font-size="12.9375" lengthAdjust="spacing" textLength="182.9733" x="2646.1823" y="567.4328">void addItem(AbstractItem item)</text><text fill="#000000" font-family="sans-serif" font-size="12.9375" lengthAdjust="spacing" textLength="155.2501" x="2646.1823" y="583.7057">AbstractItem getItem(int id)</text></g><!--class RegularPlace--><g id="elem_RegularPlace"><rect codeLine="133" fill="#F1F1F1" height="76.9031" id="RegularPlace" rx="2.3103" ry="2.3103" style="stroke:#181818;stroke-width:0.4620538292711101;" width="182.0492" x="2188.2869" y="824.7661"/><ellipse cx="2236.1095" cy="839.5518" fill="#ADD1B2" rx="10.1652" ry="10.1652" style="stroke:#181818;stroke-width:0.9241076585422202;"/><path d="M2238.6652,835.7399 Q2238.8096,835.5377 2238.9829,835.4366 Q2239.1562,835.3356 2239.3583,835.3356 Q2239.7049,835.3356 2239.9215,835.581 Q2240.138,835.8121 2240.138,836.3752 L2240.138,837.718 Q2240.138,838.2812 2239.9215,838.5266 Q2239.7049,838.7721 2239.3583,838.7721 Q2239.0407,838.7721 2238.853,838.5844 Q2238.6652,838.4111 2238.5642,837.9346 Q2238.5209,837.6025 2238.3476,837.4292 Q2238.0444,837.0827 2237.4812,836.8806 Q2236.9181,836.6784 2236.3405,836.6784 Q2235.633,836.6784 2235.041,836.9816 Q2234.4634,837.2849 2234.0014,837.9779 Q2233.5538,838.671 2233.5538,839.624 L2233.5538,840.6347 Q2233.5538,841.7754 2234.3768,842.5407 Q2235.1998,843.2916 2236.6726,843.2916 Q2237.539,843.2916 2238.1454,843.0605 Q2238.5064,842.9161 2238.8963,842.5118 Q2239.1417,842.2664 2239.2717,842.1942 Q2239.4161,842.122 2239.6038,842.122 Q2239.907,842.122 2240.138,842.3674 Q2240.3835,842.5985 2240.3835,842.9161 Q2240.3835,843.2338 2240.0658,843.6092 Q2239.6038,844.1435 2238.8674,844.4467 Q2237.8711,844.8654 2236.6726,844.8654 Q2235.272,844.8654 2234.1602,844.2879 Q2233.2505,843.8258 2232.6152,842.8439 Q2231.9799,841.8476 2231.9799,840.6636 L2231.9799,839.5951 Q2231.9799,838.3678 2232.543,837.3137 Q2233.1206,836.2452 2234.1313,835.6821 Q2235.1421,835.1045 2236.2828,835.1045 Q2236.9614,835.1045 2237.5534,835.2634 Q2238.1599,835.4078 2238.6652,835.7399 Z " fill="#000000"/><text fill="#000000" font-family="sans-serif" font-size="12.9375" lengthAdjust="spacing" textLength="78.5492" x="2255.0537" y="844.8456">RegularPlace</text><line style="stroke:#181818;stroke-width:0.4620538292711101;" x1="2189.211" x2="2369.412" y1="854.3375" y2="854.3375"/><line style="stroke:#181818;stroke-width:0.4620538292711101;" x1="2189.211" x2="2369.412" y1="861.7304" y2="861.7304"/><ellipse cx="2198.4521" cy="874.9495" fill="#84BE84" rx="2.7723" ry="2.7723" style="stroke:#038048;stroke-width:0.9241076585422202;"/><text fill="#000000" font-family="sans-serif" font-size="12.9375" lengthAdjust="spacing" textLength="158.0224" x="2206.7691" y="878.8571">RegularPlace(String name)</text><ellipse cx="2198.4521" cy="891.2224" fill="#84BE84" rx="2.7723" ry="2.7723" style="stroke:#038048;stroke-width:0.9241076585422202;"/><text fill="#000000" font-family="sans-serif" font-size="12.9375" lengthAdjust="spacing" textLength="98.8795" x="2206.7691" y="895.13">String getName()</text></g><!--class AbstractItem--><g id="elem_AbstractItem"><rect codeLine="145" fill="#F1F1F1" height="109.449" id="AbstractItem" rx="2.3103" ry="2.3103" style="stroke:#181818;stroke-width:0.4620538292711101;" width="175.5805" x="3196.0263" y="120.596"/><ellipse cx="3243.3869" cy="135.3818" fill="#A9DCDF" rx="10.1652" ry="10.1652" style="stroke:#181818;stroke-width:0.9241076585422202;"/><path d="M3245.4083,137.0134 L3241.582,137.0134 L3241.1921,137.9664 L3241.582,137.9664 Q3242.1451,137.9664 3242.3906,138.183 Q3242.636,138.3996 3242.636,138.7605 Q3242.636,139.1071 3242.3906,139.3237 Q3242.1451,139.5403 3241.582,139.5403 L3239.4594,139.5403 Q3238.8963,139.5403 3238.6652,139.3237 Q3238.4198,139.1071 3238.4198,138.7461 Q3238.4198,138.3996 3238.6797,138.183 Q3238.9251,137.9519 3239.5027,137.9664 L3241.9718,131.8153 L3240.9466,131.8153 Q3240.3835,131.8153 3240.138,131.5987 Q3239.8926,131.3821 3239.8926,131.0211 Q3239.8926,130.6746 3240.138,130.458 Q3240.3835,130.2414 3240.9466,130.2414 L3244.3398,130.2414 L3247.4731,137.9664 Q3248.0218,137.9664 3248.1951,138.0963 Q3248.5561,138.3418 3248.5561,138.7605 Q3248.5561,139.1071 3248.3106,139.3237 Q3248.0796,139.5403 3247.5165,139.5403 L3245.3939,139.5403 Q3244.8308,139.5403 3244.5853,139.3237 Q3244.3398,139.1071 3244.3398,138.7461 Q3244.3398,138.3996 3244.5853,138.183 Q3244.8308,137.9664 3245.3939,137.9664 L3245.7838,137.9664 L3245.4083,137.0134 Z M3244.7441,135.4395 L3243.4879,132.3207 L3242.2173,135.4395 L3244.7441,135.4395 Z " fill="#000000"/><text fill="#000000" font-family="sans-serif" font-size="12.9375" font-style="italic" lengthAdjust="spacing" textLength="73.0045" x="3262.3311" y="140.6755">AbstractItem</text><line style="stroke:#181818;stroke-width:0.4620538292711101;" x1="3196.9504" x2="3370.6827" y1="150.1675" y2="150.1675"/><rect fill="none" height="5.5446" style="stroke:#C82930;stroke-width:0.9241076585422202;" width="5.5446" x="3203.4192" y="160.6142"/><text fill="#000000" font-family="sans-serif" font-size="12.9375" lengthAdjust="spacing" textLength="70.2322" x="3214.5085" y="167.2942">String name</text><line style="stroke:#181818;stroke-width:0.4620538292711101;" x1="3196.9504" x2="3370.6827" y1="173.8333" y2="173.8333"/><polygon fill="#FFFF44" points="3206.1915,182.4318,3209.888,186.1283,3206.1915,189.8247,3202.4951,186.1283" style="stroke:#B38D22;stroke-width:0.9241076585422202;"/><text fill="#000000" font-family="sans-serif" font-size="12.9375" lengthAdjust="spacing" textLength="151.5537" x="3214.5085" y="190.96">AbstractItem(String name)</text><ellipse cx="3206.1915" cy="203.3253" fill="#84BE84" rx="2.7723" ry="2.7723" style="stroke:#038048;stroke-width:0.9241076585422202;"/><text fill="#000000" font-family="sans-serif" font-size="12.9375" lengthAdjust="spacing" textLength="98.8795" x="3214.5085" y="207.2329">String getName()</text><ellipse cx="3206.1915" cy="219.5983" fill="#84BE84" rx="2.7723" ry="2.7723" style="stroke:#038048;stroke-width:0.9241076585422202;"/><text fill="#000000" font-family="sans-serif" font-size="12.9375" lengthAdjust="spacing" textLength="131.2233" x="3214.5085" y="223.5059">abstract void interact()</text></g><!--class Exercises--><g id="elem_Exercises"><rect codeLine="153" fill="#F1F1F1" height="76.9031" id="Exercises" rx="2.3103" ry="2.3103" style="stroke:#181818;stroke-width:0.4620538292711101;" width="158.9465" x="3204.3433" y="513.3418"/><ellipse cx="3252.1659" cy="528.1275" fill="#ADD1B2" rx="10.1652" ry="10.1652" style="stroke:#181818;stroke-width:0.9241076585422202;"/><path d="M3254.7216,524.3156 Q3254.866,524.1134 3255.0393,524.0124 Q3255.2125,523.9113 3255.4147,523.9113 Q3255.7612,523.9113 3255.9778,524.1568 Q3256.1944,524.3878 3256.1944,524.9509 L3256.1944,526.2938 Q3256.1944,526.8569 3255.9778,527.1023 Q3255.7612,527.3478 3255.4147,527.3478 Q3255.097,527.3478 3254.9093,527.1601 Q3254.7216,526.9868 3254.6205,526.5103 Q3254.5772,526.1782 3254.404,526.005 Q3254.1007,525.6584 3253.5376,525.4563 Q3252.9745,525.2541 3252.3969,525.2541 Q3251.6894,525.2541 3251.0974,525.5574 Q3250.5198,525.8606 3250.0578,526.5537 Q3249.6101,527.2467 3249.6101,528.1997 L3249.6101,529.2105 Q3249.6101,530.3512 3250.4332,531.1164 Q3251.2562,531.8673 3252.729,531.8673 Q3253.5954,531.8673 3254.2018,531.6362 Q3254.5628,531.4919 3254.9526,531.0876 Q3255.1981,530.8421 3255.3281,530.7699 Q3255.4725,530.6977 3255.6602,530.6977 Q3255.9634,530.6977 3256.1944,530.9432 Q3256.4399,531.1742 3256.4399,531.4919 Q3256.4399,531.8095 3256.1222,532.1849 Q3255.6602,532.7192 3254.9238,533.0224 Q3253.9275,533.4411 3252.729,533.4411 Q3251.3284,533.4411 3250.2166,532.8636 Q3249.3069,532.4015 3248.6716,531.4197 Q3248.0363,530.4234 3248.0363,529.2393 L3248.0363,528.1708 Q3248.0363,526.9435 3248.5994,525.8895 Q3249.177,524.821 3250.1877,524.2578 Q3251.1985,523.6803 3252.3391,523.6803 Q3253.0178,523.6803 3253.6098,523.8391 Q3254.2162,523.9835 3254.7216,524.3156 Z " fill="#000000"/><text fill="#000000" font-family="sans-serif" font-size="12.9375" lengthAdjust="spacing" textLength="55.4465" x="3271.1101" y="533.4213">Exercises</text><line style="stroke:#181818;stroke-width:0.4620538292711101;" x1="3205.2674" x2="3362.3657" y1="542.9132" y2="542.9132"/><line style="stroke:#181818;stroke-width:0.4620538292711101;" x1="3205.2674" x2="3362.3657" y1="550.3061" y2="550.3061"/><ellipse cx="3214.5085" cy="563.5252" fill="#84BE84" rx="2.7723" ry="2.7723" style="stroke:#038048;stroke-width:0.9241076585422202;"/><text fill="#000000" font-family="sans-serif" font-size="12.9375" lengthAdjust="spacing" textLength="134.9197" x="3222.8255" y="567.4328">Exercises(String name)</text><ellipse cx="3214.5085" cy="579.7981" fill="#84BE84" rx="2.7723" ry="2.7723" style="stroke:#038048;stroke-width:0.9241076585422202;"/><text fill="#000000" font-family="sans-serif" font-size="12.9375" lengthAdjust="spacing" textLength="80.3974" x="3222.8255" y="583.7057">void interact()</text></g><!--class LearnableSubject--><g id="elem_LearnableSubject"><rect codeLine="159" fill="#F1F1F1" height="76.9031" id="LearnableSubject" rx="2.3103" ry="2.3103" style="stroke:#181818;stroke-width:0.4620538292711101;" width="206.076" x="3396.0956" y="513.3418"/><ellipse cx="3443.9182" cy="528.1275" fill="#ADD1B2" rx="10.1652" ry="10.1652" style="stroke:#181818;stroke-width:0.9241076585422202;"/><path d="M3446.474,524.3156 Q3446.6183,524.1134 3446.7916,524.0124 Q3446.9649,523.9113 3447.167,523.9113 Q3447.5136,523.9113 3447.7302,524.1568 Q3447.9467,524.3878 3447.9467,524.9509 L3447.9467,526.2938 Q3447.9467,526.8569 3447.7302,527.1023 Q3447.5136,527.3478 3447.167,527.3478 Q3446.8494,527.3478 3446.6617,527.1601 Q3446.474,526.9868 3446.3729,526.5103 Q3446.3296,526.1782 3446.1563,526.005 Q3445.8531,525.6584 3445.2899,525.4563 Q3444.7268,525.2541 3444.1492,525.2541 Q3443.4417,525.2541 3442.8497,525.5574 Q3442.2721,525.8606 3441.8101,526.5537 Q3441.3625,527.2467 3441.3625,528.1997 L3441.3625,529.2105 Q3441.3625,530.3512 3442.1855,531.1164 Q3443.0085,531.8673 3444.4813,531.8673 Q3445.3477,531.8673 3445.9541,531.6362 Q3446.3151,531.4919 3446.705,531.0876 Q3446.9504,530.8421 3447.0804,530.7699 Q3447.2248,530.6977 3447.4125,530.6977 Q3447.7157,530.6977 3447.9467,530.9432 Q3448.1922,531.1742 3448.1922,531.4919 Q3448.1922,531.8095 3447.8746,532.1849 Q3447.4125,532.7192 3446.6761,533.0224 Q3445.6798,533.4411 3444.4813,533.4411 Q3443.0807,533.4411 3441.9689,532.8636 Q3441.0593,532.4015 3440.4239,531.4197 Q3439.7886,530.4234 3439.7886,529.2393 L3439.7886,528.1708 Q3439.7886,526.9435 3440.3517,525.8895 Q3440.9293,524.821 3441.94,524.2578 Q3442.9508,523.6803 3444.0915,523.6803 Q3444.7701,523.6803 3445.3621,523.8391 Q3445.9686,523.9835 3446.474,524.3156 Z " fill="#000000"/><text fill="#000000" font-family="sans-serif" font-size="12.9375" lengthAdjust="spacing" textLength="102.576" x="3462.8624" y="533.4213">LearnableSubject</text><line style="stroke:#181818;stroke-width:0.4620538292711101;" x1="3397.0198" x2="3601.2475" y1="542.9132" y2="542.9132"/><line style="stroke:#181818;stroke-width:0.4620538292711101;" x1="3397.0198" x2="3601.2475" y1="550.3061" y2="550.3061"/><ellipse cx="3406.2608" cy="563.5252" fill="#84BE84" rx="2.7723" ry="2.7723" style="stroke:#038048;stroke-width:0.9241076585422202;"/><text fill="#000000" font-family="sans-serif" font-size="12.9375" lengthAdjust="spacing" textLength="182.0492" x="3414.5778" y="567.4328">LearnableSubject(String name)</text><ellipse cx="3406.2608" cy="579.7981" fill="#84BE84" rx="2.7723" ry="2.7723" style="stroke:#038048;stroke-width:0.9241076585422202;"/><text fill="#000000" font-family="sans-serif" font-size="12.9375" lengthAdjust="spacing" textLength="80.3974" x="3414.5778" y="583.7057">void interact()</text></g><!--class Promises--><g id="elem_Promises"><rect codeLine="171" fill="#F1F1F1" height="76.9031" id="Promises" rx="2.3103" ry="2.3103" style="stroke:#181818;stroke-width:0.4620538292711101;" width="157.0983" x="3634.9775" y="513.3418"/><ellipse cx="3682.8" cy="528.1275" fill="#ADD1B2" rx="10.1652" ry="10.1652" style="stroke:#181818;stroke-width:0.9241076585422202;"/><path d="M3685.3558,524.3156 Q3685.5002,524.1134 3685.6734,524.0124 Q3685.8467,523.9113 3686.0489,523.9113 Q3686.3954,523.9113 3686.612,524.1568 Q3686.8286,524.3878 3686.8286,524.9509 L3686.8286,526.2938 Q3686.8286,526.8569 3686.612,527.1023 Q3686.3954,527.3478 3686.0489,527.3478 Q3685.7312,527.3478 3685.5435,527.1601 Q3685.3558,526.9868 3685.2547,526.5103 Q3685.2114,526.1782 3685.0381,526.005 Q3684.7349,525.6584 3684.1718,525.4563 Q3683.6086,525.2541 3683.0311,525.2541 Q3682.3236,525.2541 3681.7315,525.5574 Q3681.154,525.8606 3680.6919,526.5537 Q3680.2443,527.2467 3680.2443,528.1997 L3680.2443,529.2105 Q3680.2443,530.3512 3681.0673,531.1164 Q3681.8904,531.8673 3683.3632,531.8673 Q3684.2295,531.8673 3684.836,531.6362 Q3685.197,531.4919 3685.5868,531.0876 Q3685.8323,530.8421 3685.9622,530.7699 Q3686.1066,530.6977 3686.2943,530.6977 Q3686.5976,530.6977 3686.8286,530.9432 Q3687.074,531.1742 3687.074,531.4919 Q3687.074,531.8095 3686.7564,532.1849 Q3686.2943,532.7192 3685.5579,533.0224 Q3684.5616,533.4411 3683.3632,533.4411 Q3681.9626,533.4411 3680.8508,532.8636 Q3679.9411,532.4015 3679.3058,531.4197 Q3678.6704,530.4234 3678.6704,529.2393 L3678.6704,528.1708 Q3678.6704,526.9435 3679.2336,525.8895 Q3679.8111,524.821 3680.8219,524.2578 Q3681.8326,523.6803 3682.9733,523.6803 Q3683.652,523.6803 3684.244,523.8391 Q3684.8504,523.9835 3685.3558,524.3156 Z " fill="#000000"/><text fill="#000000" font-family="sans-serif" font-size="12.9375" lengthAdjust="spacing" textLength="53.5982" x="3701.7443" y="533.4213">Promises</text><line style="stroke:#181818;stroke-width:0.4620538292711101;" x1="3635.9016" x2="3791.1517" y1="542.9132" y2="542.9132"/><line style="stroke:#181818;stroke-width:0.4620538292711101;" x1="3635.9016" x2="3791.1517" y1="550.3061" y2="550.3061"/><ellipse cx="3645.1427" cy="563.5252" fill="#84BE84" rx="2.7723" ry="2.7723" style="stroke:#038048;stroke-width:0.9241076585422202;"/><text fill="#000000" font-family="sans-serif" font-size="12.9375" lengthAdjust="spacing" textLength="133.0715" x="3653.4596" y="567.4328">Promises(String name)</text><ellipse cx="3645.1427" cy="579.7981" fill="#84BE84" rx="2.7723" ry="2.7723" style="stroke:#038048;stroke-width:0.9241076585422202;"/><text fill="#000000" font-family="sans-serif" font-size="12.9375" lengthAdjust="spacing" textLength="80.3974" x="3653.4596" y="583.7057">void interact()</text></g><!--class Exception--><g id="elem_Exception"><rect fill="#F1F1F1" height="44.3572" id="Exception" rx="2.3103" ry="2.3103" style="stroke:#181818;stroke-width:0.4620538292711101;" width="85.942" x="1593.1616" y="1022.0631"/><ellipse cx="1607.0232" cy="1036.8488" fill="#ADD1B2" rx="10.1652" ry="10.1652" style="stroke:#181818;stroke-width:0.9241076585422202;"/><path d="M1609.579,1033.0368 Q1609.7233,1032.8347 1609.8966,1032.7336 Q1610.0699,1032.6326 1610.272,1032.6326 Q1610.6186,1032.6326 1610.8352,1032.878 Q1611.0518,1033.109 1611.0518,1033.6722 L1611.0518,1035.015 Q1611.0518,1035.5781 1610.8352,1035.8236 Q1610.6186,1036.0691 1610.272,1036.0691 Q1609.9544,1036.0691 1609.7667,1035.8814 Q1609.579,1035.7081 1609.4779,1035.2316 Q1609.4346,1034.8995 1609.2613,1034.7262 Q1608.9581,1034.3797 1608.3949,1034.1775 Q1607.8318,1033.9754 1607.2542,1033.9754 Q1606.5467,1033.9754 1605.9547,1034.2786 Q1605.3772,1034.5818 1604.9151,1035.2749 Q1604.4675,1035.968 1604.4675,1036.921 L1604.4675,1037.9317 Q1604.4675,1039.0724 1605.2905,1039.8377 Q1606.1135,1040.5885 1607.5863,1040.5885 Q1608.4527,1040.5885 1609.0591,1040.3575 Q1609.4201,1040.2131 1609.81,1039.8088 Q1610.0554,1039.5634 1610.1854,1039.4912 Q1610.3298,1039.419 1610.5175,1039.419 Q1610.8207,1039.419 1611.0518,1039.6644 Q1611.2972,1039.8955 1611.2972,1040.2131 Q1611.2972,1040.5308 1610.9796,1040.9062 Q1610.5175,1041.4405 1609.7811,1041.7437 Q1608.7848,1042.1624 1607.5863,1042.1624 Q1606.1857,1042.1624 1605.0739,1041.5848 Q1604.1643,1041.1228 1603.5289,1040.1409 Q1602.8936,1039.1446 1602.8936,1037.9606 L1602.8936,1036.8921 Q1602.8936,1035.6648 1603.4567,1034.6107 Q1604.0343,1033.5422 1605.0451,1032.9791 Q1606.0558,1032.4015 1607.1965,1032.4015 Q1607.8751,1032.4015 1608.4671,1032.5604 Q1609.0736,1032.7047 1609.579,1033.0368 Z " fill="#000000"/><text fill="#000000" font-family="sans-serif" font-size="12.9375" lengthAdjust="spacing" textLength="56.3706" x="1619.9607" y="1042.1426">Exception</text><line style="stroke:#181818;stroke-width:0.4620538292711101;" x1="1594.0857" x2="1678.1795" y1="1051.6345" y2="1051.6345"/><line style="stroke:#181818;stroke-width:0.4620538292711101;" x1="1594.0857" x2="1678.1795" y1="1059.0274" y2="1059.0274"/></g><!--class NamesRecord--><g id="elem_NamesRecord"><rect codeLine="192" fill="#F1F1F1" height="93.176" id="NamesRecord" rx="2.3103" ry="2.3103" style="stroke:#181818;stroke-width:0.4620538292711101;" width="111.817" x="3404.4126" y="128.451"/><ellipse cx="3418.2742" cy="143.2367" fill="#F1F1F1" rx="10.1652" ry="10.1652" style="stroke:#181818;stroke-width:0.9241076585422202;"/><path d="M3416.5271,147.4529 Q3416.3249,147.6984 3416.195,147.7706 Q3416.065,147.8428 3415.8918,147.8428 Q3415.5308,147.8428 3415.2998,147.5973 Q3415.0832,147.3519 3415.0832,146.8032 L3415.0832,145.7347 Q3415.0832,145.1715 3415.2998,144.9405 Q3415.5308,144.695 3415.8918,144.695 Q3416.1661,144.695 3416.3538,144.8394 Q3416.5415,144.9838 3416.6426,145.3304 Q3416.7437,145.6625 3416.8447,145.7924 Q3417.0758,146.0234 3417.6389,146.2689 Q3418.202,146.5144 3418.8807,146.5144 Q3419.9347,146.5144 3420.5989,146.0234 Q3421.0321,145.7202 3421.0321,145.2871 Q3421.0321,144.9983 3420.83,144.7384 Q3420.6278,144.4785 3420.1513,144.3196 Q3419.8481,144.2041 3418.7796,144.002 Q3417.4945,143.7565 3416.8303,143.4244 Q3416.1661,143.0923 3415.7763,142.4858 Q3415.4008,141.865 3415.4008,141.143 Q3415.4008,140.0167 3416.3394,139.1793 Q3417.2924,138.3274 3418.8085,138.3274 Q3419.4149,138.3274 3419.9203,138.4573 Q3420.4401,138.5873 3420.8733,138.8616 Q3421.1765,138.5728 3421.4797,138.5728 Q3421.8263,138.5728 3422.0429,138.8183 Q3422.2594,139.0493 3422.2594,139.6125 L3422.2594,140.7965 Q3422.2594,141.3596 3422.0429,141.6051 Q3421.8263,141.8361 3421.4797,141.8361 Q3421.1909,141.8361 3420.9744,141.6628 Q3420.8011,141.5329 3420.7145,141.143 Q3420.6423,140.7531 3420.5123,140.5799 Q3420.2813,140.2911 3419.8337,140.1034 Q3419.4005,139.9012 3418.8085,139.9012 Q3417.9566,139.9012 3417.4656,140.2911 Q3416.9747,140.681 3416.9747,141.1141 Q3416.9747,141.4029 3417.1769,141.6773 Q3417.379,141.9516 3417.7689,142.1104 Q3418.0288,142.2115 3419.2272,142.457 Q3420.4401,142.688 3421.0899,142.9768 Q3421.7396,143.2511 3422.1728,143.8576 Q3422.606,144.464 3422.606,145.3015 Q3422.606,146.4711 3421.783,147.1641 Q3420.6856,148.0883 3418.9962,148.0883 Q3418.3464,148.0883 3417.7255,147.9294 Q3417.1191,147.7706 3416.5271,147.4529 Z " fill="#000000"/><text fill="#000000" font-family="sans-serif" font-size="12.9375" lengthAdjust="spacing" textLength="82.2456" x="3431.2117" y="148.5305">NamesRecord</text><line style="stroke:#181818;stroke-width:0.4620538292711101;" x1="3405.3367" x2="3515.3055" y1="158.0224" y2="158.0224"/><rect fill="none" height="5.5446" style="stroke:#C82930;stroke-width:0.9241076585422202;" width="5.5446" x="3411.8055" y="168.4692"/><text fill="#000000" font-family="sans-serif" font-size="12.9375" lengthAdjust="spacing" textLength="85.0179" x="3422.8948" y="175.1491">String name_1</text><rect fill="none" height="5.5446" style="stroke:#C82930;stroke-width:0.9241076585422202;" width="5.5446" x="3411.8055" y="184.7421"/><text fill="#000000" font-family="sans-serif" font-size="12.9375" lengthAdjust="spacing" textLength="85.0179" x="3422.8948" y="191.422">String name_2</text><rect fill="none" height="5.5446" style="stroke:#C82930;stroke-width:0.9241076585422202;" width="5.5446" x="3411.8055" y="201.0151"/><text fill="#000000" font-family="sans-serif" font-size="12.9375" lengthAdjust="spacing" textLength="85.0179" x="3422.8948" y="207.695">String name_3</text><line style="stroke:#181818;stroke-width:0.4620538292711101;" x1="3405.3367" x2="3515.3055" y1="214.2341" y2="214.2341"/></g><!--class Task--><g id="elem_Task"><rect codeLine="199" fill="#F1F1F1" height="337.2704" id="Task" rx="2.3103" ry="2.3103" style="stroke:#181818;stroke-width:0.4620538292711101;" width="445.4199" x="3549.0355" y="6.4688"/><ellipse cx="3753.4943" cy="21.2545" fill="#EB937F" rx="10.1652" ry="10.1652" style="stroke:#181818;stroke-width:0.9241076585422202;"/><path d="M3752.4402,21.9909 L3752.4402,24.3011 L3756.4399,24.3011 L3756.4399,23.4492 Q3756.4399,22.8861 3756.6565,22.6406 Q3756.8875,22.3952 3757.234,22.3952 Q3757.5806,22.3952 3757.7972,22.6406 Q3758.0137,22.8861 3758.0137,23.4492 L3758.0137,25.875 L3750.6209,25.875 Q3750.0433,25.875 3749.7979,25.6584 Q3749.5668,25.4418 3749.5668,25.0809 Q3749.5668,24.7343 3749.8123,24.5177 Q3750.0578,24.3011 3750.6209,24.3011 L3750.8664,24.3011 L3750.8664,18.1501 L3750.6209,18.1501 Q3750.0433,18.1501 3749.7979,17.9335 Q3749.5668,17.7169 3749.5668,17.3559 Q3749.5668,17.0094 3749.7979,16.7928 Q3750.0433,16.5762 3750.6209,16.5762 L3757.6672,16.5762 L3757.6672,18.9731 Q3757.6672,19.5362 3757.4506,19.7817 Q3757.2485,20.0127 3756.8875,20.0127 Q3756.5409,20.0127 3756.3244,19.7817 Q3756.1078,19.5362 3756.1078,18.9731 L3756.1078,18.1501 L3752.4402,18.1501 L3752.4402,20.417 L3753.8119,20.417 Q3753.8119,19.8106 3753.9275,19.6373 Q3754.1729,19.2619 3754.6061,19.2619 Q3754.9526,19.2619 3755.1692,19.5073 Q3755.3858,19.7384 3755.3858,20.3015 L3755.3858,22.1208 Q3755.3858,22.6262 3755.2703,22.7995 Q3755.0248,23.1604 3754.6061,23.1604 Q3754.1729,23.1604 3753.9275,22.785 Q3753.8119,22.6118 3753.8119,21.9909 L3752.4402,21.9909 Z " fill="#000000"/><text fill="#000000" font-family="sans-serif" font-size="12.9375" lengthAdjust="spacing" textLength="28.6473" x="3772.4385" y="26.5482">Task</text><line style="stroke:#181818;stroke-width:0.4620538292711101;" x1="3549.9596" x2="3993.5312" y1="36.0402" y2="36.0402"/><rect fill="none" height="5.5446" style="stroke:#C82930;stroke-width:0.9241076585422202;" width="5.5446" x="3556.4283" y="46.4869"/><text fill="#000000" font-family="sans-serif" font-size="12.9375" lengthAdjust="spacing" textLength="85.942" x="3567.5176" y="53.1669">final String text</text><line style="stroke:#181818;stroke-width:0.4620538292711101;" x1="3549.9596" x2="3993.5312" y1="59.706" y2="59.706"/><text fill="#000000" font-family="sans-serif" font-size="12.9375" lengthAdjust="spacing" textLength="421.3931" x="3567.5176" y="76.8327">MAKE_ELECTRIC_LIGHTING("&#1087;&#1088;&#1086;&#1074;&#1086;&#1076;&#1080;&#1090;&#1100; &#1101;&#1083;&#1077;&#1082;&#1090;&#1088;&#1080;&#1095;&#1077;&#1089;&#1082;&#1086;&#1077; &#1086;&#1089;&#1074;&#1077;&#1097;&#1077;&#1085;&#1080;&#1077;"),</text><text fill="#000000" font-family="sans-serif" font-size="12.9375" lengthAdjust="spacing" textLength="263.3707" x="3567.5176" y="93.1057">MAKE_PHONE_LINES("&#1091;&#1089;&#1090;&#1088;&#1086;&#1080;&#1090;&#1100; &#1090;&#1077;&#1083;&#1077;&#1092;&#1086;&#1085;"),</text><text fill="#000000" font-family="sans-serif" font-size="12.9375" lengthAdjust="spacing" textLength="144.1608" x="3567.5176" y="109.3786">MAKE_TV("&#1090;&#1077;&#1083;&#1077;&#1074;&#1080;&#1079;&#1086;&#1088;"),</text><text fill="#000000" font-family="sans-serif" font-size="12.9375" lengthAdjust="spacing" textLength="172.8081" x="3567.5176" y="125.6516">GOT_SMARTER("&#1087;&#1086;&#1091;&#1084;&#1085;&#1077;&#1083;"),</text><text fill="#000000" font-family="sans-serif" font-size="12.9375" lengthAdjust="spacing" textLength="225.4823" x="3567.5176" y="141.9245">LEARN_TO_READ("&#1091;&#1095;&#1080;&#1090;&#1100;&#1089;&#1103; &#1095;&#1080;&#1090;&#1072;&#1090;&#1100;"),</text><text fill="#000000" font-family="sans-serif" font-size="12.9375" lengthAdjust="spacing" textLength="231.951" x="3567.5176" y="158.1975">LEARN_TO_WRITE("&#1091;&#1095;&#1080;&#1090;&#1100;&#1089;&#1103; &#1087;&#1080;&#1089;&#1072;&#1090;&#1100;"),</text><text fill="#000000" font-family="sans-serif" font-size="12.9375" lengthAdjust="spacing" textLength="246.7367" x="3567.5176" y="174.4704">READ_GRAMMAR("&#1095;&#1080;&#1090;&#1072;&#1090;&#1100; &#1075;&#1088;&#1072;&#1084;&#1084;&#1072;&#1090;&#1080;&#1082;&#1091;"),</text><text fill="#000000" font-family="sans-serif" font-size="12.9375" lengthAdjust="spacing" textLength="244.8885" x="3567.5176" y="190.7434">READ_ALGEBRA("&#1095;&#1080;&#1090;&#1072;&#1090;&#1100; &#1072;&#1088;&#1080;&#1092;&#1084;&#1077;&#1090;&#1080;&#1082;&#1091;"),</text><text fill="#000000" font-family="sans-serif" font-size="12.9375" lengthAdjust="spacing" textLength="166.3394" x="3567.5176" y="207.0164">DO_EXERCISES("&#1079;&#1072;&#1076;&#1072;&#1095;&#1082;&#1080;"),</text><text fill="#000000" font-family="sans-serif" font-size="12.9375" lengthAdjust="spacing" textLength="332.6788" x="3567.5176" y="223.2893">WANT_TO_LEARN_PHYSICS("&#1093;&#1086;&#1090;&#1077;&#1090;&#1100; &#1080;&#1079;&#1091;&#1095;&#1072;&#1090;&#1100; &#1092;&#1080;&#1079;&#1080;&#1082;&#1091;"),</text><text fill="#000000" font-family="sans-serif" font-size="12.9375" lengthAdjust="spacing" textLength="278.1564" x="3567.5176" y="239.5623">PROMISE_A_LOT("&#1085;&#1072;&#1086;&#1073;&#1077;&#1097;&#1072;&#1077;&#1090; &#1089; &#1090;&#1088;&#1080; &#1082;&#1086;&#1088;&#1086;&#1073;&#1072;"),</text><text fill="#000000" font-family="sans-serif" font-size="12.9375" lengthAdjust="spacing" textLength="364.0984" x="3567.5176" y="255.8352">DO_A_LOT("&#1089;&#1082;&#1072;&#1079;&#1072;&#1083;, &#1095;&#1090;&#1086; &#1089;&#1076;&#1077;&#1083;&#1072;&#1077;&#1090; &#1090;&#1086; &#1080; &#1101;&#1090;&#1086;, &#1080; &#1075;&#1086;&#1088;&#1099; &#1089;&#1074;&#1077;&#1088;&#1085;&#1105;&#1090;"),</text><text fill="#000000" font-family="sans-serif" font-size="12.9375" lengthAdjust="spacing" textLength="257.826" x="3567.5176" y="272.1082">WORK_FULLY("&#1088;&#1072;&#1073;&#1086;&#1090;&#1072;&#1090;&#1100; &#1074; &#1087;&#1086;&#1083;&#1085;&#1091;&#1102; &#1089;&#1080;&#1083;&#1091;"),</text><text fill="#000000" font-family="sans-serif" font-size="12.9375" lengthAdjust="spacing" textLength="219.0135" x="3567.5176" y="288.3812">WANT_TO_LEARN("&#1093;&#1086;&#1090;&#1077;&#1090;&#1100; &#1091;&#1095;&#1080;&#1090;&#1089;&#1103;"),</text><text fill="#000000" font-family="sans-serif" font-size="12.9375" lengthAdjust="spacing" textLength="147.8572" x="3567.5176" y="304.6541">DO_ALL_THIS("&#1074;&#1089;&#1105; &#1101;&#1090;&#1086;")</text><text fill="#000000" font-family="sans-serif" font-size="12.9375" lengthAdjust="spacing" textLength="96.1072" x="3567.5176" y="320.9271">Task(String text)</text><ellipse cx="3559.2006" cy="333.2924" fill="#84BE84" rx="2.7723" ry="2.7723" style="stroke:#038048;stroke-width:0.9241076585422202;"/><text fill="#000000" font-family="sans-serif" font-size="12.9375" lengthAdjust="spacing" textLength="90.5626" x="3567.5176" y="337.2">String getText()</text></g><!--link App to FilledPlace--><g id="link_App_FilledPlace"><path codeLine="5" d="M2549.5576,205.9651 C2532.9052,309.9827 2530.4925,646.1797 2544.4928,788.9913 " fill="none" id="App-to-FilledPlace" style="stroke:#AAAAAA;stroke-width:0.9241076585422202;"/><polygon fill="none" points="2545.5747,800.0277,2548.7125,794.1489,2544.4928,788.9913,2541.3549,794.8702,2545.5747,800.0277" style="stroke:#AAAAAA;stroke-width:0.9241076585422202;"/></g><!--link App to FilledPlace--><g id="link_App_FilledPlace"><path codeLine="6" d="M2560.2403,205.9651 C2560.2403,309.9827 2560.2403,646.1268 2560.2403,788.9384 " fill="none" id="App-to-FilledPlace-1" style="stroke:#AAAAAA;stroke-width:0.9241076585422202;"/><polygon fill="none" points="2560.2403,800.0277,2563.9367,794.4831,2560.2403,788.9384,2556.5438,794.4831,2560.2403,800.0277" style="stroke:#AAAAAA;stroke-width:0.9241076585422202;"/></g><!--link App to FilledPlace--><g id="link_App_FilledPlace"><path codeLine="14" d="M2570.923,205.9651 C2587.5754,309.9827 2589.988,646.1797 2575.9878,788.9913 " fill="none" id="App-to-FilledPlace-2" style="stroke:#AAAAAA;stroke-width:0.9241076585422202;"/><polygon fill="none" points="2574.9059,800.0277,2579.1256,794.8702,2575.9878,788.9913,2571.768,794.1489,2574.9059,800.0277" style="stroke:#AAAAAA;stroke-width:0.9241076585422202;"/></g><!--link App to RegularShortly--><g id="link_App_RegularShortly"><path codeLine="7" d="M2463.0888,183.1581 C2223.5786,202.6383 1613.7045,264.5813 1468.8691,399.2145 C1365.7295,495.0907 1483.8212,605.9374 1382.9271,704.17 C1310.9853,774.2174 1259.8545,729.9896 1163.9136,759.6165 C1132.5032,769.3196 1109.8968,776.8062 1077.9412,788.1634 " fill="none" id="App-to-RegularShortly" style="stroke:#AAAAAA;stroke-width:0.9241076585422202;"/><polygon fill="none" points="1067.4922,791.8771,1073.9546,793.5033,1077.9412,788.1634,1071.4788,786.5373,1067.4922,791.8771" style="stroke:#AAAAAA;stroke-width:0.9241076585422202;"/></g><!--link App to SwitchableItem--><g id="link_App_SwitchableItem"><path codeLine="8" d="M2612.9606,205.7433 C2677.4264,241.2475 2783.403,307.5708 2834.7002,399.2145 C2906.3556,527.2219 2901.4464,695.3621 2897.8793,788.8264 " fill="none" id="App-to-SwitchableItem" style="stroke:#AAAAAA;stroke-width:0.9241076585422202;"/><polygon fill="none" points="2897.4564,799.9076,2901.3616,794.5079,2897.8793,788.8264,2893.9741,794.226,2897.4564,799.9076" style="stroke:#AAAAAA;stroke-width:0.9241076585422202;"/></g><!--link App to SwitchableItem--><g id="link_App_SwitchableItem"><path codeLine="13" d="M2636.5993,205.7433 C2709.7701,241.2475 2815.7468,307.5708 2867.044,399.2145 C2938.6993,527.2219 2935.1359,695.496 2920.0359,788.9602 " fill="none" id="App-to-SwitchableItem-1" style="stroke:#AAAAAA;stroke-width:0.9241076585422202;"/><polygon fill="none" points="2918.2673,799.9076,2922.8007,795.0235,2920.0359,788.9602,2915.5025,793.8444,2918.2673,799.9076" style="stroke:#AAAAAA;stroke-width:0.9241076585422202;"/></g><!--link App to Phone--><g id="link_App_Phone"><path codeLine="9" d="M2631.8309,205.7341 C2713.3926,242.1901 2847.2311,310.2969 2939.1244,399.2145 C2973.492,432.4731 2996.1942,470.4358 3012.8744,503.4357 " fill="none" id="App-to-Phone" style="stroke:#AAAAAA;stroke-width:0.9241076585422202;"/><polygon fill="none" points="3017.8769,513.3326,3018.6746,506.7166,3012.8744,503.4357,3012.0767,510.0516,3017.8769,513.3326" style="stroke:#AAAAAA;stroke-width:0.9241076585422202;"/></g><!--link App to MasterShorty--><g id="link_App_MasterShorty"><path codeLine="10" d="M2462.867,178.7594 C2055.0306,191.087 498.2419,247.7995 346.0783,399.2145 C292.3969,452.6279 290.7563,664.7979 293.8983,780.6533 " fill="none" id="App-to-MasterShorty" style="stroke:#AAAAAA;stroke-width:0.9241076585422202;"/><polygon fill="none" points="294.1989,791.7385,297.7437,786.0957,293.8983,780.6533,290.3535,786.2961,294.1989,791.7385" style="stroke:#AAAAAA;stroke-width:0.9241076585422202;"/></g><!--link App to SlaveShorty--><g id="link_App_SlaveShorty"><path codeLine="11" d="M2463.1812,182.4004 C2230.454,200.3373 1651.8794,259.434 1530.7843,399.2145 C1445.6186,497.5211 1451.9436,645.0089 1473.8819,748.6291 " fill="none" id="App-to-SlaveShorty" style="stroke:#AAAAAA;stroke-width:0.9241076585422202;"/><polygon fill="none" points="1476.1788,759.4779,1478.6466,753.2878,1473.8819,748.6291,1471.4141,754.8191,1476.1788,759.4779" style="stroke:#AAAAAA;stroke-width:0.9241076585422202;"/></g><!--link App to SlaveShorty--><g id="link_App_SlaveShorty"><path codeLine="12" d="M2462.8578,183.7496 C2235.5643,203.1836 1681.3492,262.7515 1563.1281,399.2145 C1477.9623,497.5211 1485.1158,644.866 1498.959,748.4862 " fill="none" id="App-to-SlaveShorty-1" style="stroke:#AAAAAA;stroke-width:0.9241076585422202;"/><polygon fill="none" points="1500.4274,759.4779,1503.3571,753.4926,1498.959,748.4862,1496.0293,754.4715,1500.4274,759.4779" style="stroke:#AAAAAA;stroke-width:0.9241076585422202;"/></g><!--reverse link AbstractShorty to MasterShorty--><g id="link_AbstractShorty_MasterShorty"><path d="M825.2636,704.146 C819.95,706.3454 830.0335,702.1185 824.7661,704.17 C730.4701,740.931 701.0466,731.2279 603.9044,759.6165 C570.2114,769.4582 534.6795,780.6122 500.2287,791.8494 " fill="none" id="AbstractShorty-backto-MasterShorty" style="stroke:#181818;stroke-width:0.9241076585422202;"/><polygon fill="none" points="840.633,697.7845,823.1431,699.0229,827.3842,709.2692,840.633,697.7845" style="stroke:#181818;stroke-width:0.9241076585422202;"/></g><!--reverse link ICanSetTask to MasterShorty--><g id="link_ICanSetTask_MasterShorty"><path d="M206.8426,605.9538 C224.4376,655.9111 250.313,729.3705 272.353,791.9418 " fill="none" id="ICanSetTask-backto-MasterShorty" style="stroke:#181818;stroke-width:0.9241076585422202;stroke-dasharray:7.0,7.0;"/><polygon fill="none" points="201.3169,590.2645,201.6129,607.7957,212.0724,604.1119,201.3169,590.2645" style="stroke:#181818;stroke-width:0.9241076585422202;"/></g><!--reverse link AbstractShorty to RegularShortly--><g id="link_AbstractShorty_RegularShortly"><path d="M986.4965,717.7932 C964.7245,748.4274 952.4778,765.6786 933.8847,791.8401 " fill="none" id="AbstractShorty-backto-RegularShortly" style="stroke:#181818;stroke-width:0.9241076585422202;"/><polygon fill="none" points="996.1326,704.2347,981.977,714.5812,991.016,721.0053,996.1326,704.2347" style="stroke:#181818;stroke-width:0.9241076585422202;"/></g><!--reverse link ICanDoSomething to RegularShortly--><g id="link_ICanDoSomething_RegularShortly"><path d="M680.5077,651.2346 C726.9071,699.3529 772.3322,746.4757 815.9686,791.7292 " fill="none" id="ICanDoSomething-backto-RegularShortly" style="stroke:#181818;stroke-width:0.9241076585422202;stroke-dasharray:7.0,7.0;"/><polygon fill="none" points="668.9615,639.2607,676.5164,655.0833,684.499,647.3859,668.9615,639.2607" style="stroke:#181818;stroke-width:0.9241076585422202;"/></g><!--reverse link AbstractShorty to SlaveShorty--><g id="link_AbstractShorty_SlaveShorty"><path d="M1317.1459,714.2807 C1341.9027,733.0401 1353.4943,741.8274 1376.9574,759.6165 " fill="none" id="AbstractShorty-backto-SlaveShorty" style="stroke:#181818;stroke-width:0.9241076585422202;"/><polygon fill="none" points="1303.8882,704.2347,1313.7972,718.6999,1320.4945,709.8615,1303.8882,704.2347" style="stroke:#181818;stroke-width:0.9241076585422202;"/></g><!--reverse link ISlave to SlaveShorty--><g id="link_ISlave_SlaveShorty"><path d="M1760.9357,657.5391 C1717.7245,693.108 1681.2106,723.1604 1637.1122,759.4594 " fill="none" id="ISlave-backto-SlaveShorty" style="stroke:#181818;stroke-width:0.9241076585422202;stroke-dasharray:7.0,7.0;"/><polygon fill="none" points="1773.7784,646.9678,1757.412,653.2582,1764.4595,661.82,1773.7784,646.9678" style="stroke:#181818;stroke-width:0.9241076585422202;"/></g><!--link SlaveShorty to NotPermittedTaskException--><g id="link_SlaveShorty_NotPermittedTaskException"><path codeLine="76" d="M1489.0609,966.8938 C1486.5473,1020.4828 1486.7768,1071.8433 1493.5505,1110.6835 " fill="none" id="SlaveShorty-to-NotPermittedTaskException" style="stroke:#AAAAAA;stroke-width:0.9241076585422202;"/><polygon fill="none" points="1495.4557,1121.6079,1498.1446,1115.5107,1493.5505,1110.6835,1490.8616,1116.7808,1495.4557,1121.6079" style="stroke:#AAAAAA;stroke-width:0.9241076585422202;"/></g><!--link SlaveShorty to NotPermittedTaskException--><g id="link_SlaveShorty_NotPermittedTaskException"><path codeLine="77" d="M1512.3022,966.8938 C1512.3022,1020.4828 1512.3022,1071.6784 1512.3022,1110.5187 " fill="none" id="SlaveShorty-to-NotPermittedTaskException-1" style="stroke:#AAAAAA;stroke-width:0.9241076585422202;"/><polygon fill="none" points="1512.3022,1121.6079,1515.9986,1116.0633,1512.3022,1110.5187,1508.6058,1116.0633,1512.3022,1121.6079" style="stroke:#AAAAAA;stroke-width:0.9241076585422202;"/></g><!--link SlaveShorty to NotPermittedTaskException--><g id="link_SlaveShorty_NotPermittedTaskException"><path codeLine="78" d="M1535.5435,966.8938 C1538.0571,1020.4828 1537.8276,1071.8433 1531.0539,1110.6835 " fill="none" id="SlaveShorty-to-NotPermittedTaskException-2" style="stroke:#AAAAAA;stroke-width:0.9241076585422202;"/><polygon fill="none" points="1529.1487,1121.6079,1533.7427,1116.7808,1531.0539,1110.6835,1526.4598,1115.5107,1529.1487,1121.6079" style="stroke:#AAAAAA;stroke-width:0.9241076585422202;"/></g><!--reverse link AbstractPlace to FilledPlace--><g id="link_AbstractPlace_FilledPlace"><path d="M2422.0002,644.7686 C2455.3698,697.2579 2489.814,751.4289 2520.8178,800.1848 " fill="none" id="AbstractPlace-backto-FilledPlace" style="stroke:#181818;stroke-width:0.9241076585422202;"/><polygon fill="none" points="2413.0761,630.7312,2417.3211,647.7433,2426.6794,641.7939,2413.0761,630.7312" style="stroke:#181818;stroke-width:0.9241076585422202;"/></g><!--reverse link IHasItems to FilledPlace--><g id="link_IHasItems_FilledPlace"><path d="M2707.8201,604.6964 C2677.8975,656.9085 2631.7015,737.5026 2595.7445,800.2495 " fill="none" id="IHasItems-backto-FilledPlace" style="stroke:#181818;stroke-width:0.9241076585422202;stroke-dasharray:7.0,7.0;"/><polygon fill="none" points="2716.091,590.2645,2703.0095,601.9395,2712.6308,607.4534,2716.091,590.2645" style="stroke:#181818;stroke-width:0.9241076585422202;"/></g><!--reverse link AbstractPlace to RegularPlace--><g id="link_AbstractPlace_RegularPlace"><path d="M2337.8271,646.7834 C2320.9899,708.7633 2302.5528,776.6201 2289.5414,824.5258 " fill="none" id="AbstractPlace-backto-RegularPlace" style="stroke:#181818;stroke-width:0.9241076585422202;"/><polygon fill="none" points="2342.1878,630.7312,2332.4764,645.3298,2343.1779,648.2369,2342.1878,630.7312" style="stroke:#181818;stroke-width:0.9241076585422202;"/></g><!--reverse link AbstractItem to Exercises--><g id="link_AbstractItem_Exercises"><path d="M3283.8166,246.3671 C3283.8166,323.2713 3283.8166,446.2239 3283.8166,513.0923 " fill="none" id="AbstractItem-backto-Exercises" style="stroke:#181818;stroke-width:0.9241076585422202;"/><polygon fill="none" points="3283.8166,229.7332,3278.2719,246.3671,3289.3612,246.3671,3283.8166,229.7332" style="stroke:#181818;stroke-width:0.9241076585422202;"/></g><!--reverse link AbstractItem to LearnableSubject--><g id="link_AbstractItem_LearnableSubject"><path d="M3322.9507,244.1556 C3367.1415,321.0598 3439.0667,446.2239 3477.4818,513.0923 " fill="none" id="AbstractItem-backto-LearnableSubject" style="stroke:#181818;stroke-width:0.9241076585422202;"/><polygon fill="none" points="3314.6633,229.7332,3318.1432,246.9181,3327.7582,241.3931,3314.6633,229.7332" style="stroke:#181818;stroke-width:0.9241076585422202;"/></g><!--reverse link AbstractItem to Phone--><g id="link_AbstractItem_Phone"><path d="M3236.8481,243.477 C3205.6595,288.4626 3169.7909,340.8201 3131.3388,399.2145 C3105.9813,437.7313 3077.8237,482.3657 3058.5746,513.1662 " fill="none" id="AbstractItem-backto-Phone" style="stroke:#181818;stroke-width:0.9241076585422202;"/><polygon fill="none" points="3246.3255,229.8071,3232.2915,240.3179,3241.4048,246.6361,3246.3255,229.8071" style="stroke:#181818;stroke-width:0.9241076585422202;"/></g><!--reverse link AbstractItem to Promises--><g id="link_AbstractItem_Promises"><path d="M3311.2288,245.1874 C3328.1955,282.6045 3349.0216,315.4626 3388.2407,343.768 C3473.5359,405.3321 3532.9283,337.8168 3618.3435,399.2145 C3657.9508,427.6863 3684.7776,478.235 3699.6003,513.0738 " fill="none" id="AbstractItem-backto-Promises" style="stroke:#181818;stroke-width:0.9241076585422202;"/><polygon fill="none" points="3304.3595,230.0381,3306.1791,247.4772,3316.2786,242.8976,3304.3595,230.0381" style="stroke:#181818;stroke-width:0.9241076585422202;"/></g><!--reverse link AbstractItem to SwitchableItem--><g id="link_AbstractItem_SwitchableItem"><path d="M3249.9239,244.9514 C3228.7064,289.4564 3206.709,339.7389 3187.7094,399.2145 C3145.5146,531.2695 3198.4013,588.4163 3122.0977,704.17 C3090.7243,751.7708 3039.6858,789.5206 2994.3768,816.1626 " fill="none" id="AbstractItem-backto-SwitchableItem" style="stroke:#181818;stroke-width:0.9241076585422202;"/><polygon fill="none" points="3257.0821,229.9365,3244.9189,242.5653,3254.9288,247.3375,3257.0821,229.9365" style="stroke:#181818;stroke-width:0.9241076585422202;"/></g><!--reverse link Exception to NotPermittedTaskException--><g id="link_Exception_NotPermittedTaskException"><path d="M1600.6124,1077.9044 C1583.7936,1093.4016 1572.8867,1103.4585 1553.0461,1121.7466 " fill="none" id="Exception-backto-NotPermittedTaskException" style="stroke:#181818;stroke-width:0.9241076585422202;"/><polygon fill="none" points="1612.8451,1066.6328,1596.8552,1073.8268,1604.3696,1081.9819,1612.8451,1066.6328" style="stroke:#181818;stroke-width:0.9241076585422202;"/></g><!--SRC=[lLXlJzj667_lJt635miYaQ3TonN90mDHGu8SRrrLLTPX7yIjOpFVfL1DbVZJgPgsRket2NHe20hx2lOtsdDdnxbBR0WGzGN1z_pvFN_lkREfWts2kdWVVRUmi83sF9TrDCV7b29zTnVzgirJXfdde3UXvuAS5rJQBFA2dHSl4Ovsw9psJkE2jPeRxWKlPdLTVraBqQhd-yJTzB53KhR4lOKT8fFiz7mSjJjXnFotHVhjFOyv7RpbapeZtGA8pKuOa2B7DZ1b98KkHlRn6rB2lfaxYLjotDz-ixIuW0fS70bVabEjDGYE0cwitTjwHHnM8Zcn84WQ-oHoF4feALRct2qXbCIf6fieJYXb57Q5InhUeYp23aDPVsRBj1xGghKcxX9g4YUCN1J0irORo0XNa1ywqCjXeDMy051wKKG2PdD9z0GjQlCgOjRe0ibUh29v-KXTFgwYOajpDu7UIwd0ar8KiMSfyQ7cgrv46SzFHQMt8Lk1My2mEbwKqrKBEuGrCYEIqf1Mwa_cD-Wh1dU1cbEsmj0dE43abnxsQQKbEXQ5h4EYz1baUFKwc7QMGrVePBWiJ1ygV2XfsHIJDpmY-um4xbZhUDrTdtIX5oYgB-EWJPY5wMlUKU8_WnzjNWQQHcjKKGu-Lux-CEs9cqM56rIKqoeoGpplP0mvo-fUdZ3FAs4xx1BMuUx1GQDYJ6dtbOFUI-akks_GoN20Hcmbj7YSmsnMqO3l1OxVSuazh4Lc8IAOAaZRNk3HpbIWNlNeWtmQbbuw4oUfkn3dMqlPc5snq6e3-xq0BBycBipbRHW3CCbD7BXX5qNWmnCKa3sK4iJs7temdOrPu5gvcId1t66h5kEAJPlchGbrq9t1V9vM7oBMYS8zYfeXsoHHrsECk1p6s7V8hZXMfzUeTx3rm4w-tT8xJMxnaKjCkLgPqiGwaoffS1oIQ9ltoFXKdTeGcjuCcjO8SiasxlaCtJV4EMqCuix15M3SCIn0uBDKhU7m1Z9oufQTp2CGWo5RDXE-taZuYXFXgms41pVUxIQcq9dtC7BNrft016_CalUsz5Y3cu1qx6cp2bS-8EUqsU7xW-1chmmvVC7xnRJV9gGNsx7BJagLxphhcF8F0PG7gKSHVjlmAFj-8CzPIyWJ0kcLPYYpn1sHZAc9ICzwxBeSeYBZ2JZfXKtG81z2a0VgkKNlOMCN-PiY75xLYrmhn9P6avIJswAuCOWR6al8b_ML0Bd5vVaSMBWel8ULagZyKybObZBpyxb4KV4ACKS_r9H2ZmfER45y5ok55Tp9iR8FC-LmcS34YEhtipBScZHt6SdV4EPLRTLeJHXblIXeyVDFMcvlLsxqgNIsvUuDAH1pgVZ0dowX5E-eRRUHqZAx46mFQYz_p5ARsLvKbu_KvME1Ge9U5sMNY0tzgM4R3MFPCklBTgE-jcxLcskLcVY_v22-Za_Xxv_uF3bA_aJ9n_WoFeilO740f0_nMN8ONu306OgluV4K2B-3m5Ly7f_Dp5LJxCtrLjC0uARHhimanycXKByUO1w10g0cxu5qbIjPFu5inWBSy_XVi730sMijosvlwAPbcDn981_7Ny0aY79smz3DfcsrRDFGLuIz3wabiFitIXTndnCKwMTctJB6n07-7EBAnJcclMRg6s0VX2Km57-6eFhWoHTE08SlakDSHM-i6J-O-gXANwJnFQYSoIehBTlusJ2NwssUCOYy3nNeW-f5VCxvp_IcnNrEdTzSVzwkB_FK_WQvEE9G71io9e99JO4HdiBSnARPsW1uMxSRBGjiN86Dw_X4rA_F8L1oYD8o8rvXKR2Jk9-vbwc9wlU5WvTLo2rOlmP5y9RNBSFXD419FlAdAd-CFtF0v0-KjSn1V9LyIev4Q2tpgRtwOwFn7D1vFaz4J5c-Jdb1hW7w2aBxYwkVnvTfG4fEHdAH5nLAEWYWqR2jzJfFxocGFsNkpS3kXyiKzWVNFWRxM5opAn91sPuM4DAz-Jy0]--></g></svg>